<svg width="256" height="256" viewBox="0 0 256 256" fill="none" xmlns="http://www.w3.org/2000/svg">
<g clip-path="url(#clip0_1119_1976)">
<path d="M196 0H60C26.8629 0 0 26.8629 0 60V196C0 229.137 26.8629 256 60 256H196C229.137 256 256 229.137 256 196V60C256 26.8629 229.137 0 196 0Z" fill="#F4F2ED"/>
<path d="M41.636 203.039H73.454V125.766L28 91.6758V189.403C28 196.948 34.114 203.039 41.636 203.039Z" fill="#4285F4"/>
<path d="M182.545 203.039H214.364C221.909 203.039 228 196.925 228 189.403V91.6748L182.545 125.766" fill="#34A853"/>
<path d="M182.545 66.6748V125.766L228 91.6758V73.4918C228 56.6288 208.75 47.0148 195.273 57.1288" fill="#FBBC04"/>
<path d="M73.4551 125.766V66.6758L128 107.583L182.545 66.6738V125.765L128 166.675" fill="#EA4335"/>
<path d="M28 73.4928V91.6748L73.454 125.766V66.6758L60.727 57.1298C47.227 47.0158 28 56.6298 28 73.4928Z" fill="#C5221F"/>
</g>
<defs>
<clipPath id="clip0_1119_1976">
<rect width="256" height="256" fill="white"/>
</clipPath>
</defs>
</svg>
