<svg width="753" height="747" viewBox="0 0 753 747" fill="none" xmlns="http://www.w3.org/2000/svg">
<path d="M123.082 680.503V731.708H197.969H280.554V680.503H123.082Z" fill="#F5F5F5"/>
<path d="M116.474 666.197V680.503H286.071V666.197H197.969H116.474Z" fill="#E0E0E0"/>
<path d="M201.273 731.708H280.554V680.503H286.072V666.197H197.969V679.178L201.273 731.708Z" fill="#E0E0E0"/>
<path d="M177.037 688.755H145.104V696.47H177.037V688.755Z" fill="#E0E0E0"/>
<path d="M182.002 706.114H140.994V722.383H182.002V706.114Z" fill="white"/>
<path d="M147.317 615.06V666.264H222.204H304.789V615.06H147.317Z" fill="#F5F5F5"/>
<path d="M140.709 600.736V615.06H310.29V600.736H222.204H140.709Z" fill="#E0E0E0"/>
<path d="M225.508 666.264H304.789V615.06H310.29V600.736H222.204V613.735L225.508 666.264Z" fill="#E0E0E0"/>
<path d="M201.273 623.311H169.339V631.026H201.273V623.311Z" fill="#E0E0E0"/>
<path d="M206.237 640.653H165.23V656.922H206.237V640.653Z" fill="white"/>
<path d="M148.139 50.5506C152.388 47.9926 156.956 46.0075 161.725 44.6469L164.509 31.2293L187.201 30.8604L190.555 44.1772C195.365 45.3647 199.996 47.1864 204.325 49.5946L215.797 42.0808L232.133 57.8463L225.022 69.5867C227.587 73.8316 229.572 78.4005 230.925 83.1719L244.343 85.9561L244.729 108.665L231.378 111.869C230.191 116.678 228.369 121.309 225.961 125.638L233.475 137.11L217.709 153.446L205.969 146.335C201.724 148.9 197.155 150.885 192.384 152.239L189.599 165.656L166.907 166.042L163.553 152.725C158.743 151.538 154.112 149.716 149.783 147.308L138.311 154.822L121.975 139.056L129.086 127.316C126.522 123.076 124.536 118.513 123.183 113.747L109.765 110.946L109.379 88.2538L122.696 84.9833C123.884 80.1736 125.705 75.5431 128.114 71.2136L120.684 59.7751L136.449 43.4393L148.19 50.5506H148.139ZM160.249 80.74C156.903 84.2049 154.66 88.5841 153.803 93.324C152.946 98.0638 153.514 102.951 155.434 107.368C157.355 111.785 160.543 115.534 164.594 118.139C168.645 120.744 173.378 122.09 178.194 122.006C183.01 121.921 187.692 120.41 191.65 117.665C195.607 114.919 198.661 111.061 200.426 106.579C202.191 102.098 202.587 97.1933 201.565 92.4864C200.542 87.7796 198.147 83.4817 194.681 80.1362C190.028 75.6571 183.787 73.2097 177.329 73.3324C170.872 73.455 164.728 76.1377 160.249 80.7903V80.74Z" fill="#EBEBEB"/>
<path d="M513.281 23.4974C518.333 20.4457 523.771 18.0823 529.449 16.47L532.803 0.469611L559.823 0L563.714 15.8662C569.445 17.2783 574.961 19.4499 580.117 22.3234L593.786 13.3672L613.241 32.1517L604.771 46.1227C607.826 51.1737 610.19 56.6115 611.799 62.2909L627.799 65.6452L628.269 92.6816L612.403 96.5727C610.983 102.301 608.812 107.817 605.945 112.976L614.902 126.645L596.117 146.083L582.146 137.614C577.099 140.675 571.66 143.039 565.978 144.641L562.624 160.641L535.587 161.128L531.696 145.245C525.963 143.84 520.446 141.668 515.293 138.788L501.624 147.744L482.186 128.976L490.655 115.005C487.597 109.956 485.233 104.518 483.628 98.8369L467.627 95.4825L467.141 68.4462L483.024 64.5551C484.435 58.8237 486.606 53.3071 489.481 48.1522L480.525 34.4998L499.293 15.0444L513.264 23.4304L513.281 23.4974ZM527.704 59.5067C523.721 63.6331 521.051 68.848 520.032 74.4918C519.012 80.1357 519.689 85.9551 521.977 91.2142C524.265 96.4733 528.061 100.936 532.885 104.038C537.709 107.14 543.344 108.741 549.079 108.641C554.813 108.54 560.388 106.741 565.1 103.471C569.812 100.202 573.449 95.6083 575.55 90.272C577.652 84.9357 578.124 79.0961 576.907 73.4916C575.689 67.887 572.838 62.7693 568.712 58.7855C563.176 53.4468 555.748 50.524 548.059 50.6592C540.37 50.7944 533.049 53.9767 527.704 59.5067Z" fill="#EBEBEB"/>
<path d="M517.373 242.991C521.319 240.607 525.566 238.763 530.002 237.507L532.602 225.012L553.718 224.626L556.753 237.037C561.229 238.139 565.538 239.831 569.567 242.069L580.251 235.075L595.429 249.751L588.821 260.652C591.205 264.598 593.05 268.846 594.306 273.282L606.801 275.881L607.187 296.997L594.775 300.049C593.671 304.524 591.979 308.833 589.744 312.863L596.738 323.53L582.062 338.726L571.16 332.101C567.212 334.483 562.965 336.333 558.531 337.602L555.932 350.097L534.816 350.466L531.763 338.071C527.288 336.97 522.979 335.278 518.949 333.04L508.283 340.034L493.02 325.342L499.645 314.44C497.262 310.491 495.412 306.245 494.144 301.811L481.716 299.211L481.28 278.095L493.674 275.059C494.776 270.584 496.468 266.275 498.706 262.246L491.712 251.562L506.371 236.367L517.289 242.991H517.373ZM528.627 271.118C525.512 274.341 523.424 278.415 522.625 282.825C521.826 287.235 522.353 291.783 524.139 295.894C525.925 300.004 528.89 303.493 532.659 305.918C536.428 308.343 540.831 309.597 545.312 309.519C549.793 309.442 554.151 308.037 557.834 305.483C561.517 302.929 564.359 299.34 566.002 295.17C567.645 291 568.015 286.437 567.064 282.057C566.113 277.677 563.885 273.678 560.661 270.564C556.339 266.391 550.537 264.104 544.529 264.208C538.522 264.312 532.802 266.797 528.627 271.118Z" fill="#E0E0E0"/>
<path d="M630.097 178.017C632.29 176.696 634.647 175.67 637.108 174.965L638.55 168.021L650.29 167.82L651.967 174.713C654.455 175.318 656.847 176.26 659.079 177.514L665.016 173.623L673.402 181.774L669.729 187.829C671.057 190.024 672.084 192.387 672.781 194.856L679.725 196.299L679.926 208.039L673.033 209.716C672.424 212.199 671.488 214.591 670.249 216.827L674.123 222.765L665.972 231.151L659.917 227.477C657.725 228.798 655.367 229.825 652.907 230.53L651.448 237.474L639.707 237.675L638.03 230.782C635.546 230.167 633.155 229.225 630.919 227.981L624.981 231.872L616.596 223.721L620.269 217.666C618.948 215.467 617.921 213.105 617.216 210.639L610.273 209.196L610.071 197.456L616.965 195.779C617.579 193.295 618.521 190.903 619.765 188.667L615.874 182.73L624.025 174.344L630.097 178.017ZM636.336 193.649C634.612 195.44 633.458 197.703 633.019 200.15C632.581 202.597 632.877 205.12 633.871 207.399C634.865 209.678 636.512 211.611 638.604 212.955C640.697 214.298 643.14 214.991 645.626 214.947C648.112 214.902 650.529 214.122 652.572 212.705C654.614 211.287 656.191 209.296 657.103 206.983C658.015 204.67 658.221 202.139 657.695 199.709C657.169 197.279 655.935 195.059 654.148 193.33C652.959 192.179 651.554 191.274 650.014 190.667C648.475 190.06 646.83 189.763 645.176 189.793C643.521 189.822 641.889 190.178 640.372 190.84C638.855 191.502 637.483 192.456 636.336 193.649Z" fill="#F5F5F5"/>
<path d="M294.927 23.5311C297.116 22.2034 299.474 21.1767 301.938 20.4786L303.38 13.535L315.12 13.3337L316.798 20.2102C319.28 20.8297 321.671 21.7714 323.909 23.0111L329.846 19.1201L338.232 27.2712L334.559 33.3259C335.887 35.5151 336.913 37.8732 337.612 40.3365L344.555 41.7789L344.756 53.5192L337.863 55.1964C337.254 57.6797 336.318 60.0711 335.079 62.3077L338.953 68.245L330.802 76.6309L324.748 72.9579C322.581 74.3281 320.24 75.4 317.787 76.1445L316.328 83.0881L304.588 83.3061L302.91 76.4129C300.427 75.798 298.035 74.8562 295.799 73.612L289.862 77.5031L281.476 69.3519L285.048 63.2134C283.727 61.0207 282.701 58.6635 281.996 56.2027L275.069 54.7604L274.851 43.02L281.744 41.3428C282.372 38.8501 283.331 36.4528 284.596 34.2148L280.704 28.2943L288.856 19.9083L294.927 23.5814V23.5311ZM301.166 39.2463C299.442 41.0381 298.288 43.3005 297.849 45.7478C297.411 48.1952 297.707 50.7176 298.701 52.9966C299.695 55.2756 301.342 57.2089 303.434 58.5523C305.527 59.8957 307.97 60.589 310.456 60.5445C312.942 60.5 315.359 59.7198 317.402 58.3024C319.445 56.8851 321.021 54.8941 321.933 52.581C322.845 50.2679 323.051 47.7364 322.525 45.3064C321.999 42.8763 320.765 40.6566 318.978 38.9277C317.788 37.7789 316.383 36.8759 314.843 36.2702C313.304 35.6645 311.66 35.368 310.006 35.3976C308.352 35.4272 306.72 35.7823 305.203 36.4427C303.687 37.1031 302.315 38.0557 301.166 39.2463Z" fill="#F5F5F5"/>
<path d="M189.281 212.97C191.47 211.642 193.828 210.615 196.291 209.917L197.734 202.974L209.474 202.772L211.151 209.666C213.644 210.27 216.042 211.213 218.279 212.467L224.2 208.576L232.586 216.727L228.896 222.781C230.227 224.975 231.254 227.339 231.949 229.809L238.892 231.251L239.093 242.991L232.217 244.669C231.602 247.153 230.66 249.544 229.416 251.78L233.29 257.717L225.156 266.103L219.084 262.43C216.892 263.751 214.535 264.777 212.074 265.483L210.631 272.426L198.891 272.627L197.214 265.734C194.724 265.122 192.326 264.18 190.086 262.933L184.165 266.824L175.779 258.673L179.469 252.619C178.141 250.424 177.115 248.06 176.417 245.591L169.473 244.149L169.255 232.408L176.148 230.731C176.76 228.246 177.702 225.855 178.949 223.62L175.058 217.683L183.209 209.297L189.281 212.97ZM195.537 228.601C193.811 230.392 192.654 232.655 192.213 235.103C191.773 237.551 192.068 240.074 193.061 242.355C194.055 244.635 195.702 246.57 197.795 247.914C199.887 249.258 202.332 249.952 204.819 249.908C207.306 249.863 209.723 249.082 211.767 247.664C213.81 246.245 215.387 244.253 216.298 241.939C217.209 239.624 217.414 237.091 216.886 234.661C216.358 232.23 215.121 230.01 213.332 228.283C212.143 227.134 210.739 226.232 209.201 225.626C207.663 225.021 206.021 224.724 204.368 224.754C202.716 224.784 201.085 225.139 199.57 225.799C198.054 226.459 196.684 227.411 195.537 228.601Z" fill="#F5F5F5"/>
<path d="M718.887 733.352C718.887 733.587 559.185 733.788 362.216 733.788C165.246 733.788 5.51074 733.603 5.51074 733.352C5.51074 733.1 165.179 732.916 362.216 732.916C559.252 732.916 718.887 733.117 718.887 733.352Z" fill="#263238"/>
<path d="M483.376 733.033L265.878 732.899C239.714 732.899 218.514 710.592 218.531 683.103L218.631 110.057C218.631 82.5514 239.865 60.2616 266.046 60.2783L483.544 60.4125C509.708 60.4125 530.908 82.7191 530.891 110.208L530.79 683.288C530.79 710.76 509.557 733.05 483.376 733.033Z" fill="#263238"/>
<path d="M483.309 80.6729H441.144C435.492 80.6729 430.897 85.7045 430.897 91.9101V99.9439C430.897 106.166 426.318 111.198 420.666 111.198H338.483C332.815 111.198 328.236 106.166 328.236 99.9439V91.8934C328.236 85.6877 323.657 80.6394 318.005 80.6394H303.162H266.264C247.932 80.6394 233.055 96.2373 233.055 115.508L232.955 674.851C232.955 694.106 247.798 709.72 266.113 709.72L483.191 709.854C501.523 709.854 516.383 694.256 516.383 674.986L516.5 115.559C516.5 96.2708 501.641 80.6897 483.309 80.6729Z" fill="white"/>
<path d="M414.594 355.347C414.594 358.332 413.709 361.251 412.051 363.733C410.392 366.215 408.034 368.15 405.276 369.292C402.518 370.435 399.483 370.734 396.555 370.151C393.627 369.569 390.937 368.131 388.826 366.02C386.715 363.909 385.278 361.22 384.695 358.292C384.113 355.363 384.412 352.328 385.554 349.57C386.697 346.812 388.631 344.454 391.114 342.796C393.596 341.137 396.514 340.252 399.5 340.252C403.503 340.252 407.343 341.842 410.173 344.673C413.004 347.504 414.594 351.343 414.594 355.347Z" fill="#CF78DE"/>
<path d="M354.584 371.481C363.477 371.481 370.685 364.257 370.685 355.346C370.685 346.436 363.477 339.212 354.584 339.212C345.692 339.212 338.483 346.436 338.483 355.346C338.483 364.257 345.692 371.481 354.584 371.481Z" fill="#CF78DE"/>
<path d="M320.085 343.925C329.524 343.925 337.175 336.258 337.175 326.801C337.175 317.343 329.524 309.677 320.085 309.677C310.646 309.677 302.994 317.343 302.994 326.801C302.994 336.258 310.646 343.925 320.085 343.925Z" fill="#CF78DE"/>
<path d="M313.091 300.788C322.947 300.788 330.936 292.775 330.936 282.892C330.936 273.008 322.947 264.996 313.091 264.996C303.235 264.996 295.246 273.008 295.246 282.892C295.246 292.775 303.235 300.788 313.091 300.788Z" fill="#CF78DE"/>
<path d="M334.945 262.967C345.134 262.967 353.394 254.684 353.394 244.467C353.394 234.25 345.134 225.968 334.945 225.968C324.756 225.968 316.496 234.25 316.496 244.467C316.496 254.684 324.756 262.967 334.945 262.967Z" fill="#CF78DE"/>
<path d="M376.958 249.432C388.064 249.432 397.068 240.406 397.068 229.272C397.068 218.138 388.064 209.112 376.958 209.112C365.852 209.112 356.849 218.138 356.849 229.272C356.849 240.406 365.852 249.432 376.958 249.432Z" fill="#CF78DE"/>
<path d="M447.434 326.449C447.427 329.336 446.565 332.157 444.956 334.555C443.346 336.953 441.063 338.82 438.393 339.921C435.723 341.021 432.787 341.306 429.955 340.739C427.124 340.171 424.524 338.777 422.484 336.733C420.444 334.688 419.056 332.085 418.496 329.253C417.935 326.42 418.226 323.484 419.332 320.817C420.439 318.15 422.312 315.87 424.713 314.266C427.115 312.663 429.938 311.807 432.826 311.807C434.746 311.809 436.648 312.189 438.421 312.926C440.195 313.663 441.806 314.742 443.162 316.102C444.519 317.462 445.594 319.075 446.327 320.85C447.06 322.626 447.436 324.528 447.434 326.449Z" fill="#CF78DE"/>
<path d="M440.641 295.991C448.125 295.991 454.193 289.908 454.193 282.406C454.193 274.903 448.125 268.82 440.641 268.82C433.157 268.82 427.089 274.903 427.089 282.406C427.089 289.908 433.157 295.991 440.641 295.991Z" fill="#CF78DE"/>
<path d="M418.1 256.359C424.936 256.359 430.477 250.802 430.477 243.948C430.477 237.093 424.936 231.536 418.1 231.536C411.264 231.536 405.722 237.093 405.722 243.948C405.722 250.802 411.264 256.359 418.1 256.359Z" fill="#CF78DE"/>
<g opacity="0.5">
<path d="M414.594 355.347C414.594 358.332 413.709 361.251 412.051 363.733C410.392 366.215 408.034 368.15 405.276 369.292C402.518 370.435 399.483 370.734 396.555 370.151C393.627 369.569 390.937 368.131 388.826 366.02C386.715 363.909 385.278 361.22 384.695 358.292C384.113 355.363 384.412 352.328 385.554 349.57C386.697 346.812 388.631 344.454 391.114 342.796C393.596 341.137 396.514 340.252 399.5 340.252C403.503 340.252 407.343 341.842 410.173 344.673C413.004 347.504 414.594 351.343 414.594 355.347Z" fill="white"/>
</g>
<g opacity="0.4">
<path d="M354.584 371.481C363.477 371.481 370.685 364.257 370.685 355.346C370.685 346.436 363.477 339.212 354.584 339.212C345.692 339.212 338.483 346.436 338.483 355.346C338.483 364.257 345.692 371.481 354.584 371.481Z" fill="white"/>
</g>
<g opacity="0.3">
<path d="M320.085 343.925C329.524 343.925 337.175 336.258 337.175 326.801C337.175 317.343 329.524 309.677 320.085 309.677C310.646 309.677 302.994 317.343 302.994 326.801C302.994 336.258 310.646 343.925 320.085 343.925Z" fill="white"/>
</g>
<g opacity="0.2">
<path d="M313.091 300.788C322.947 300.788 330.936 292.775 330.936 282.892C330.936 273.008 322.947 264.996 313.091 264.996C303.235 264.996 295.246 273.008 295.246 282.892C295.246 292.775 303.235 300.788 313.091 300.788Z" fill="white"/>
</g>
<g opacity="0.1">
<path d="M334.945 262.967C345.134 262.967 353.394 254.684 353.394 244.467C353.394 234.25 345.134 225.968 334.945 225.968C324.756 225.968 316.496 234.25 316.496 244.467C316.496 254.684 324.756 262.967 334.945 262.967Z" fill="white"/>
</g>
<g opacity="0.2">
<path d="M376.958 249.432C388.064 249.432 397.068 240.406 397.068 229.272C397.068 218.138 388.064 209.112 376.958 209.112C365.852 209.112 356.849 218.138 356.849 229.272C356.849 240.406 365.852 249.432 376.958 249.432Z" fill="white"/>
</g>
<g opacity="0.6">
<path d="M447.434 326.449C447.427 329.336 446.565 332.157 444.956 334.555C443.346 336.953 441.063 338.82 438.393 339.921C435.723 341.021 432.787 341.306 429.955 340.739C427.124 340.171 424.524 338.777 422.484 336.733C420.444 334.688 419.056 332.085 418.496 329.253C417.935 326.42 418.226 323.484 419.332 320.817C420.439 318.15 422.312 315.87 424.713 314.266C427.115 312.663 429.938 311.807 432.826 311.807C434.746 311.809 436.648 312.189 438.421 312.926C440.195 313.663 441.806 314.742 443.162 316.102C444.519 317.462 445.594 319.075 446.327 320.85C447.06 322.626 447.436 324.528 447.434 326.449Z" fill="white"/>
</g>
<g opacity="0.7">
<path d="M440.641 295.991C448.125 295.991 454.193 289.908 454.193 282.406C454.193 274.903 448.125 268.82 440.641 268.82C433.157 268.82 427.089 274.903 427.089 282.406C427.089 289.908 433.157 295.991 440.641 295.991Z" fill="white"/>
</g>
<g opacity="0.8">
<path d="M418.1 256.359C424.936 256.359 430.477 250.802 430.477 243.948C430.477 237.093 424.936 231.536 418.1 231.536C411.264 231.536 405.722 237.093 405.722 243.948C405.722 250.802 411.264 256.359 418.1 256.359Z" fill="white"/>
</g>
<path d="M328.756 500.474C328.744 499.746 328.881 499.024 329.158 498.351C329.436 497.678 329.848 497.069 330.369 496.562C330.891 496.054 331.511 495.659 332.191 495.4C332.871 495.141 333.597 495.024 334.324 495.056C335.046 495.03 335.765 495.155 336.435 495.424C337.105 495.693 337.712 496.099 338.215 496.616L337.494 497.321C337.085 496.907 336.596 496.582 336.056 496.366C335.517 496.15 334.939 496.046 334.358 496.063C333.778 496.063 333.205 496.177 332.67 496.399C332.134 496.62 331.648 496.945 331.239 497.355C330.829 497.764 330.504 498.251 330.282 498.786C330.061 499.321 329.947 499.895 329.947 500.474C329.947 501.053 330.061 501.627 330.282 502.162C330.504 502.697 330.829 503.183 331.239 503.593C331.648 504.002 332.134 504.327 332.67 504.549C333.205 504.771 333.778 504.885 334.358 504.885C334.94 504.902 335.52 504.798 336.06 504.578C336.6 504.359 337.089 504.029 337.494 503.61L338.215 504.315C337.71 504.836 337.101 505.245 336.428 505.516C335.755 505.788 335.033 505.916 334.307 505.891C333.582 505.921 332.858 505.802 332.18 505.542C331.501 505.282 330.883 504.887 330.364 504.379C329.844 503.872 329.433 503.264 329.157 502.593C328.88 501.921 328.744 501.2 328.756 500.474Z" fill="#263238"/>
<path d="M349.486 495.056V505.707H348.379V500.792H341.67V505.707H340.546V495.056H341.67V499.82H348.379V495.056H349.486Z" fill="#263238"/>
<path d="M360.522 504.734V505.707H353.008V495.056H360.287V496.029H354.132V499.82H359.633V500.792H354.132V504.734H360.522Z" fill="#263238"/>
<path d="M362.098 500.474C362.086 499.746 362.223 499.024 362.501 498.351C362.778 497.678 363.19 497.069 363.712 496.562C364.234 496.054 364.854 495.659 365.534 495.4C366.214 495.141 366.94 495.024 367.667 495.056C368.388 495.03 369.107 495.155 369.778 495.424C370.448 495.693 371.054 496.099 371.558 496.616L370.837 497.321C370.428 496.907 369.939 496.582 369.399 496.366C368.859 496.15 368.281 496.046 367.7 496.063C367.121 496.063 366.547 496.177 366.012 496.399C365.477 496.62 364.991 496.945 364.581 497.355C364.172 497.764 363.847 498.251 363.625 498.786C363.403 499.321 363.289 499.895 363.289 500.474C363.289 501.053 363.403 501.627 363.625 502.162C363.847 502.697 364.172 503.183 364.581 503.593C364.991 504.002 365.477 504.327 366.012 504.549C366.547 504.771 367.121 504.885 367.7 504.885C368.283 504.902 368.863 504.798 369.403 504.578C369.943 504.359 370.431 504.029 370.837 503.61L371.558 504.315C371.052 504.836 370.444 505.245 369.771 505.516C369.098 505.788 368.375 505.916 367.65 505.891C366.924 505.921 366.2 505.802 365.522 505.542C364.844 505.282 364.226 504.887 363.706 504.379C363.186 503.872 362.776 503.264 362.499 502.593C362.223 501.921 362.086 501.2 362.098 500.474Z" fill="#263238"/>
<path d="M377.294 500.709L375.113 502.922V505.707H373.939V495.056H375.063V501.497L381.302 495.056H382.594L377.998 499.887L382.912 505.707H381.587L377.294 500.709Z" fill="#263238"/>
<path d="M384.74 495.056H385.864V505.707H384.74V495.056Z" fill="#263238"/>
<path d="M398.191 495.056V505.707H397.269L390.443 497.119V505.757H389.319V495.107H390.242L397.084 503.761V495.107L398.191 495.056Z" fill="#263238"/>
<path d="M409.16 500.474H410.234V504.533C409.146 505.445 407.762 505.928 406.343 505.891C405.631 505.891 404.927 505.751 404.269 505.479C403.612 505.207 403.015 504.808 402.512 504.305C402.009 503.801 401.61 503.204 401.338 502.547C401.065 501.89 400.925 501.185 400.925 500.474C400.925 499.762 401.065 499.058 401.338 498.401C401.61 497.744 402.009 497.146 402.512 496.643C403.015 496.14 403.612 495.741 404.269 495.469C404.927 495.197 405.631 495.057 406.343 495.057C407.073 495.024 407.803 495.144 408.485 495.41C409.166 495.675 409.785 496.081 410.301 496.6L409.596 497.304C409.084 496.761 408.444 496.355 407.735 496.121C407.026 495.887 406.269 495.834 405.535 495.966C404.8 496.098 404.109 496.411 403.526 496.876C402.942 497.342 402.483 497.946 402.191 498.633C401.9 499.32 401.783 500.069 401.854 500.813C401.924 501.556 402.178 502.27 402.593 502.891C403.009 503.511 403.572 504.018 404.232 504.366C404.893 504.715 405.63 504.893 406.376 504.885C407.368 504.915 408.344 504.627 409.16 504.063V500.474Z" fill="#263238"/>
<path d="M412.615 504.952C412.613 504.845 412.632 504.738 412.672 504.639C412.711 504.539 412.77 504.448 412.845 504.372C412.92 504.295 413.01 504.234 413.108 504.193C413.207 504.151 413.313 504.13 413.42 504.13C413.638 504.13 413.847 504.217 414.002 504.371C414.156 504.525 414.242 504.734 414.242 504.952C414.242 505.172 414.156 505.382 414.003 505.539C413.849 505.696 413.64 505.786 413.42 505.791C413.313 505.788 413.206 505.765 413.107 505.722C413.008 505.678 412.919 505.616 412.844 505.538C412.769 505.46 412.711 505.368 412.672 505.268C412.632 505.167 412.613 505.06 412.615 504.952Z" fill="#263238"/>
<path d="M415.869 504.952C415.867 504.845 415.886 504.738 415.926 504.639C415.965 504.539 416.024 504.448 416.099 504.372C416.174 504.295 416.263 504.234 416.362 504.193C416.461 504.151 416.567 504.13 416.674 504.13C416.782 504.13 416.889 504.151 416.989 504.193C417.088 504.234 417.179 504.295 417.255 504.371C417.332 504.447 417.392 504.538 417.433 504.637C417.475 504.737 417.496 504.844 417.496 504.952C417.496 505.172 417.41 505.382 417.256 505.539C417.103 505.696 416.894 505.786 416.674 505.791C416.566 505.791 416.458 505.769 416.358 505.726C416.258 505.684 416.168 505.621 416.093 505.543C416.018 505.465 415.959 505.372 415.92 505.27C415.882 505.169 415.865 505.06 415.869 504.952Z" fill="#263238"/>
<path d="M419.056 504.952C419.053 504.845 419.073 504.738 419.112 504.639C419.151 504.539 419.21 504.448 419.285 504.372C419.36 504.295 419.45 504.234 419.549 504.193C419.647 504.151 419.754 504.13 419.861 504.13C419.968 504.13 420.074 504.151 420.173 504.193C420.271 504.234 420.361 504.295 420.436 504.372C420.511 504.448 420.57 504.539 420.609 504.639C420.649 504.738 420.668 504.845 420.666 504.952C420.668 505.06 420.649 505.167 420.61 505.268C420.57 505.368 420.512 505.46 420.437 505.538C420.362 505.616 420.273 505.678 420.174 505.722C420.075 505.765 419.969 505.788 419.861 505.791C419.752 505.791 419.645 505.769 419.545 505.726C419.445 505.684 419.354 505.621 419.279 505.543C419.204 505.465 419.145 505.372 419.107 505.27C419.069 505.169 419.051 505.06 419.056 504.952Z" fill="#263238"/>
<path d="M458.352 433.437H291.254C280.861 433.437 272.436 441.862 272.436 452.255V455.374C272.436 465.767 280.861 474.192 291.254 474.192H458.352C468.745 474.192 477.17 465.767 477.17 455.374V452.255C477.17 441.862 468.745 433.437 458.352 433.437Z" fill="#F5F5F5"/>
<path d="M367.432 433.437H291.254C280.861 433.437 272.436 441.862 272.436 452.255V455.374C272.436 465.767 280.861 474.192 291.254 474.192H367.432C377.825 474.192 386.25 465.767 386.25 455.374V452.255C386.25 441.862 377.825 433.437 367.432 433.437Z" fill="#CF78DE"/>
<path d="M435.19 456.867C435.19 458.98 433.731 460.59 430.779 460.59C429.966 460.626 429.154 460.495 428.393 460.207C427.632 459.918 426.937 459.478 426.352 458.913L426.821 458.209C427.335 458.727 427.95 459.133 428.629 459.401C429.307 459.67 430.034 459.795 430.763 459.769C433.094 459.769 434.285 458.595 434.285 456.917C434.285 455.24 433.178 454.016 429.756 454.016H427.207L427.878 447.894H434.587V448.733H428.683L428.196 453.177H429.991C433.798 453.093 435.19 454.553 435.19 456.867Z" fill="#CF78DE"/>
<path d="M445.153 456.867C445.153 458.98 443.694 460.59 440.742 460.59C439.929 460.626 439.117 460.495 438.356 460.207C437.594 459.918 436.9 459.478 436.314 458.913L436.784 458.209C437.297 458.727 437.913 459.133 438.591 459.401C439.269 459.67 439.996 459.795 440.725 459.769C443.056 459.769 444.23 458.595 444.23 456.917C444.23 455.24 443.14 454.016 439.719 454.016H437.169L437.823 447.894H444.532V448.733H438.612L438.142 453.177H439.937C443.744 453.093 445.153 454.553 445.153 456.867Z" fill="#CF78DE"/>
<path d="M446.528 451.148C446.528 449.101 447.669 447.793 449.295 447.793C450.922 447.793 452.096 449.152 452.096 451.148C452.096 453.143 450.939 454.502 449.295 454.502C447.652 454.502 446.528 453.211 446.528 451.148ZM451.409 451.148C451.409 449.47 450.553 448.363 449.295 448.363C448.038 448.363 447.216 449.42 447.216 451.148C447.216 452.875 448.054 453.949 449.295 453.949C450.537 453.949 451.409 452.892 451.409 451.148ZM456.977 447.793H457.799L449.195 460.422H448.423L456.977 447.793ZM454.059 457.085C454.059 455.022 455.199 453.73 456.843 453.73C458.486 453.73 459.61 455.072 459.61 457.085C459.61 459.097 458.486 460.439 456.843 460.439C455.199 460.439 454.059 459.165 454.059 457.102V457.085ZM458.923 457.085C458.923 455.408 458.084 454.284 456.843 454.284C455.602 454.284 454.73 455.341 454.73 457.085C454.73 458.829 455.585 459.886 456.843 459.886C458.101 459.886 458.923 458.829 458.923 457.102V457.085Z" fill="#CF78DE"/>
<g opacity="0.2">
<path d="M321.93 433.437L306.634 473.706H317.871L332.144 433.437H321.93Z" fill="white"/>
</g>
<g opacity="0.2">
<path d="M349.536 433.437L334.223 473.706H345.477L359.733 433.437H349.536Z" fill="white"/>
</g>
<g opacity="0.2">
<path d="M376.573 436.472L362.316 473.957H369.025C370.8 473.578 372.531 473.016 374.191 472.28L384.002 444.506C382.249 441.24 379.692 438.475 376.573 436.472Z" fill="white"/>
</g>
<g opacity="0.2">
<path d="M295.111 433.386L281.04 470.419C284.046 472.375 287.52 473.493 291.103 473.656L305.376 433.403L295.111 433.386Z" fill="white"/>
</g>
<path d="M457.983 474.192C459.526 474.099 461.058 473.875 462.562 473.521C466.883 472.418 470.68 469.837 473.296 466.226C475.188 463.642 476.384 460.616 476.768 457.437C476.957 455.615 477.002 453.781 476.902 451.953C476.829 449.987 476.444 448.045 475.762 446.2C474.611 443.037 472.637 440.238 470.042 438.094C467.447 435.951 464.326 434.539 461.002 434.007C458.501 433.743 455.985 433.659 453.472 433.755L291.623 433.889C289.697 433.918 287.784 434.212 285.937 434.761C284.118 435.369 282.396 436.233 280.822 437.328C277.737 439.543 275.397 442.643 274.113 446.217C271.849 453.278 272.587 461.798 277.467 467.265C279.842 470.018 282.965 472.022 286.457 473.035C289.811 474.075 293.552 473.689 297.141 473.773H318.173L390.929 473.857L439.987 474.008H453.405L439.987 474.092L390.929 474.226L318.173 474.326H291.757C289.897 474.311 288.048 474.052 286.256 473.555C282.565 472.496 279.267 470.377 276.768 467.461C274.27 464.546 272.682 460.961 272.201 457.152C272.005 455.23 271.961 453.295 272.067 451.366C272.149 449.399 272.539 447.458 273.224 445.613C274.596 441.852 277.083 438.598 280.352 436.288C281.999 435.148 283.801 434.25 285.702 433.621C287.635 433.039 289.639 432.729 291.656 432.698L453.505 432.816C456.065 432.817 458.621 433.008 461.153 433.386C464.568 433.946 467.769 435.411 470.424 437.63C473.079 439.848 475.09 442.738 476.248 445.999C478.697 453.982 477.254 461.781 473.598 466.393C470.92 470.043 467.032 472.622 462.629 473.672C461.974 473.84 461.307 473.958 460.633 474.024C460.151 474.107 459.663 474.146 459.174 474.142C458.386 474.209 457.983 474.192 457.983 474.192Z" fill="#263238"/>
<path d="M292.243 656.973V670.658C292.243 670.928 292.17 671.193 292.033 671.425C291.895 671.657 291.698 671.848 291.462 671.979C291.226 672.109 290.959 672.173 290.689 672.165C290.42 672.157 290.157 672.077 289.929 671.933L279.161 665.09C278.95 664.951 278.777 664.762 278.657 664.54C278.537 664.317 278.474 664.068 278.474 663.816C278.474 663.563 278.537 663.314 278.657 663.092C278.777 662.869 278.95 662.68 279.161 662.541L289.929 655.698C290.157 655.554 290.42 655.474 290.689 655.466C290.959 655.458 291.226 655.522 291.462 655.653C291.698 655.783 291.895 655.974 292.033 656.206C292.17 656.438 292.243 656.703 292.243 656.973Z" fill="#E0E0E0"/>
<path d="M380.648 663.681C380.645 665.548 380.088 667.372 379.049 668.923C378.009 670.473 376.533 671.681 374.807 672.393C373.082 673.105 371.184 673.29 369.353 672.924C367.523 672.557 365.842 671.657 364.523 670.335C363.204 669.014 362.306 667.332 361.943 665.5C361.58 663.669 361.768 661.772 362.483 660.047C363.199 658.323 364.409 656.849 365.961 655.812C367.514 654.775 369.339 654.222 371.206 654.222C372.447 654.222 373.676 654.467 374.823 654.942C375.97 655.418 377.011 656.115 377.888 656.993C378.765 657.872 379.461 658.915 379.934 660.063C380.408 661.21 380.65 662.44 380.648 663.681Z" fill="#E0E0E0"/>
<path d="M462.747 655.463H451.61C449.878 655.463 448.474 656.867 448.474 658.599V669.786C448.474 671.519 449.878 672.923 451.61 672.923H462.747C464.479 672.923 465.883 671.519 465.883 669.786V658.599C465.883 656.867 464.479 655.463 462.747 655.463Z" fill="#E0E0E0"/>
<path d="M663.339 431.524C664.312 424.654 664.694 417.713 664.479 410.778C664.254 403.811 662.3 397.01 658.794 390.987C658.24 390.098 653.863 384.278 652.856 384.546C652.135 384.764 655.255 390.417 655.003 391.138C652.931 398.057 653.001 405.442 655.204 412.321C657.19 419.005 659.919 425.447 663.339 431.524Z" fill="#263238"/>
<path d="M632.847 476.993C631.824 472.196 631.003 468.423 630.969 468.439C630.935 468.456 614.197 470.117 609.769 453.999C607.656 446.217 604.604 429.847 602.004 415.004C600.659 407.305 602.262 399.381 606.495 392.811C610.728 386.241 617.28 381.506 624.847 379.548L626.407 379.146C643.464 375.791 655.858 388.387 658.76 405.528L670.802 465.119L644.319 493.211L632.847 476.993Z" fill="#FFBE9D"/>
<path d="M630.969 468.356C638.432 466.38 645.173 462.305 650.391 456.615C650.391 456.615 648.445 469.915 631.942 472.632L630.969 468.356Z" fill="#EB996E"/>
<path d="M610.423 427.7C610.589 428.291 610.976 428.795 611.504 429.108C612.032 429.42 612.66 429.517 613.258 429.378C613.558 429.325 613.844 429.214 614.1 429.048C614.355 428.883 614.575 428.668 614.746 428.416C614.917 428.164 615.035 427.88 615.093 427.581C615.151 427.283 615.149 426.975 615.086 426.677C614.924 426.088 614.54 425.584 614.015 425.271C613.49 424.958 612.864 424.861 612.268 425C611.968 425.052 611.681 425.164 611.425 425.329C611.168 425.494 610.948 425.709 610.776 425.961C610.604 426.212 610.484 426.496 610.423 426.795C610.363 427.094 610.363 427.401 610.423 427.7Z" fill="#263238"/>
<path d="M607.186 420.723C607.555 420.958 608.964 419.214 611.446 418.577C613.929 417.939 616.075 418.711 616.277 418.325C616.478 417.939 615.941 417.688 614.985 417.319C613.722 416.854 612.345 416.79 611.044 417.134C609.734 417.464 608.56 418.197 607.69 419.231C607.069 419.969 607.069 420.623 607.186 420.723Z" fill="#263238"/>
<path d="M632.881 423.206C633.046 423.796 633.433 424.301 633.961 424.613C634.49 424.926 635.118 425.022 635.715 424.883C636.015 424.833 636.302 424.723 636.558 424.559C636.814 424.396 637.035 424.183 637.207 423.932C637.379 423.682 637.499 423.4 637.56 423.102C637.621 422.804 637.621 422.497 637.56 422.199C637.409 421.595 637.029 421.074 636.5 420.745C635.971 420.416 635.334 420.306 634.726 420.438C634.42 420.492 634.127 420.607 633.867 420.777C633.607 420.947 633.383 421.168 633.211 421.427C633.038 421.686 632.92 421.977 632.863 422.282C632.807 422.588 632.813 422.902 632.881 423.206Z" fill="#263238"/>
<path d="M631.774 415.423C632.143 415.658 633.552 413.914 636.034 413.277C638.516 412.639 640.663 413.411 640.848 413.042C641.032 412.673 640.512 412.404 639.573 412.035C638.307 411.555 636.92 411.49 635.615 411.851C634.302 412.165 633.126 412.895 632.26 413.931C631.724 414.719 631.589 415.34 631.774 415.423Z" fill="#263238"/>
<path d="M627.816 436.741C626.399 436.683 624.981 436.79 623.589 437.059C622.935 437.16 622.298 437.193 622.08 436.791C621.884 436.14 621.884 435.446 622.08 434.795C622.281 433.118 622.499 431.34 622.717 429.478C623.539 421.931 623.958 415.792 623.656 415.776C623.355 415.759 622.432 421.83 621.61 429.378C621.426 431.239 621.241 433 621.074 434.694C620.876 435.566 620.989 436.48 621.392 437.277C621.543 437.474 621.736 437.634 621.956 437.747C622.177 437.86 622.419 437.923 622.667 437.931C623.046 437.935 623.423 437.89 623.791 437.797C625.171 437.615 626.524 437.26 627.816 436.741Z" fill="#263238"/>
<path d="M635.581 436.64C635.162 436.724 635.866 439.424 634.055 441.923C632.244 444.422 629.292 444.892 629.376 445.277C629.459 445.663 630.147 445.646 631.371 445.361C632.952 444.969 634.346 444.038 635.313 442.728C636.242 441.464 636.639 439.887 636.42 438.334C636.218 437.16 635.732 436.573 635.581 436.64Z" fill="#263238"/>
<path d="M629.292 405.327C629.711 405.931 632.109 404.975 635.112 404.572C638.114 404.17 640.68 404.354 640.915 403.65C641.015 403.314 640.428 402.778 639.321 402.375C637.848 401.883 636.278 401.75 634.743 401.989C633.205 402.206 631.74 402.78 630.466 403.666C629.51 404.354 629.107 405.025 629.292 405.327Z" fill="#263238"/>
<path d="M606.079 412.203C606.666 412.656 608.226 411.633 610.272 411.063C612.319 410.493 614.163 410.459 614.415 409.771C614.516 409.436 614.096 408.95 613.191 408.614C612.004 408.232 610.731 408.214 609.535 408.564C608.339 408.914 607.275 409.615 606.482 410.576C605.912 411.348 605.811 411.985 606.079 412.203Z" fill="#263238"/>
<path d="M660.538 417.755C660.789 417.57 670.785 411.599 673.301 422.786C675.817 433.973 664.11 434.141 664.01 433.822C663.909 433.503 660.538 417.755 660.538 417.755Z" fill="#FFBE9D"/>
<path d="M666.458 428.791C666.458 428.791 666.693 428.874 667.045 428.958C667.552 429.048 668.075 428.94 668.504 428.656C669.125 428.043 669.569 427.274 669.791 426.43C670.012 425.586 670.002 424.698 669.762 423.86C669.571 422.895 669.17 421.985 668.588 421.193C668.407 420.867 668.149 420.591 667.836 420.389C667.523 420.188 667.165 420.066 666.794 420.036C666.559 420.029 666.328 420.104 666.142 420.248C665.956 420.391 665.825 420.595 665.771 420.824C665.687 421.176 665.771 421.377 665.771 421.411C665.771 421.444 665.485 421.277 665.485 420.79C665.478 420.491 665.58 420.199 665.771 419.968C665.898 419.818 666.054 419.694 666.23 419.605C666.405 419.516 666.597 419.463 666.794 419.449C667.27 419.435 667.742 419.544 668.164 419.764C668.587 419.984 668.947 420.309 669.209 420.706C669.897 421.564 670.363 422.578 670.567 423.658C671.003 425.923 670.333 428.287 668.89 429.109C668.612 429.268 668.3 429.36 667.98 429.378C667.659 429.395 667.339 429.338 667.045 429.21C666.542 429.059 666.425 428.824 666.458 428.791Z" fill="#EB996E"/>
<path d="M605.224 394.811C603.211 394.207 607.371 387.179 611.363 384.211C617.417 379.716 627.262 375.624 633.82 376.043C641.72 376.546 648.697 378.928 653.946 384.882C659.032 391.009 662.4 398.377 663.708 406.232C664.304 408.587 664.269 411.057 663.607 413.394C662.584 416.195 659.917 418.425 660.789 421.78C660.965 422.387 661.018 423.022 660.946 423.65C660.874 424.278 660.678 424.885 660.37 425.436C658.794 428.053 655.858 426.56 654.265 424.748C650.911 420.908 649.468 415.759 648.177 410.794C647.058 407.317 646.52 403.679 646.584 400.027C646.735 398.048 647.221 396.102 647.271 394.123C647.349 393.132 647.21 392.136 646.866 391.204C646.521 390.271 645.979 389.425 645.275 388.722C644.924 388.456 644.554 388.215 644.168 388.001C642.318 386.98 640.228 386.469 638.115 386.522C636.001 386.575 633.94 387.19 632.143 388.303C626.34 391.876 616.327 397.511 613.073 395.985C610.787 395.095 608.712 393.735 606.985 391.993L605.224 394.811Z" fill="#263238"/>
<path d="M631.405 369.904C632.177 369.821 651.062 369.334 658.894 381.511C666.727 393.687 666.442 398.098 666.442 398.098C667.251 398.364 668.018 398.743 668.723 399.222C669.679 399.909 669.662 404.387 667.213 404.505C647.808 401.151 626.96 405.645 604.134 412.17L586.456 416.413C581.676 418.241 579.613 417.369 581.425 415.591C582.783 414.249 595.362 405.092 595.362 405.092L597.593 402.375L602.323 390.45C602.323 390.45 601.065 389.276 602.557 387.666C604.05 386.056 616.327 371.565 631.405 369.904Z" fill="#CF78DE"/>
<path d="M597.542 402.375C597.776 402.336 598.005 402.28 598.23 402.207L600.192 401.67C601.87 401.167 604.352 400.563 607.421 399.859C615.44 398.131 623.594 397.104 631.791 396.79C639.99 396.508 648.199 396.687 656.378 397.326C659.531 397.544 662.064 397.779 663.825 397.93L665.838 398.098H666.542L665.854 397.997L663.825 397.779C662.148 397.595 659.548 397.326 656.395 397.092C648.215 396.37 639.997 396.157 631.791 396.454C623.572 396.764 615.399 397.819 607.371 399.607C601.232 401.083 597.542 402.375 597.542 402.375Z" fill="#263238"/>
<g opacity="0.3">
<path d="M649.703 373.611C649.703 373.611 629.661 375.288 622.097 381.695L622.969 380.94L615.723 386.593C615.189 387.151 614.537 387.584 613.815 387.859C613.092 388.135 612.318 388.246 611.547 388.186C614.48 384.292 618.115 380.982 622.264 378.425C629.627 373.661 642.122 369.25 649.703 373.611Z" fill="black"/>
</g>
<path d="M650.005 373.645C649.352 373.367 648.679 373.137 647.992 372.957C646.128 372.433 644.208 372.129 642.273 372.051C639.393 371.939 636.512 372.244 633.72 372.957C630.273 373.758 627.037 375.285 624.227 377.435C622.807 378.584 621.463 379.822 620.201 381.142C618.977 382.4 617.736 383.557 616.662 384.781C615.722 385.993 614.673 387.116 613.526 388.136C612.493 388.952 611.289 389.525 610.004 389.813C605.291 391.071 602.138 390.819 602.272 390.467C602.326 390.545 602.396 390.611 602.476 390.66C602.557 390.709 602.648 390.74 602.742 390.752C603.259 390.864 603.79 390.903 604.318 390.869C606.256 390.795 608.179 390.508 610.054 390.014C611.382 389.747 612.628 389.172 613.694 388.337C614.853 387.315 615.919 386.192 616.881 384.983C617.937 383.792 619.195 382.618 620.419 381.36C621.674 380.061 623.007 378.839 624.411 377.704C627.188 375.574 630.383 374.054 633.787 373.242C636.55 372.523 639.402 372.201 642.256 372.286C644.187 372.34 646.105 372.61 647.976 373.091L649.485 373.511C649.655 373.567 649.829 373.612 650.005 373.645Z" fill="#263238"/>
<g opacity="0.3">
<path d="M661.963 386.643C658.696 387.245 655.372 387.492 652.051 387.381C648.194 387.498 644.42 387.783 640.562 387.733C637.644 387.733 634.239 387.85 631.958 386.324C632.004 387.021 632.227 387.695 632.606 388.282C632.984 388.869 633.506 389.349 634.122 389.679C636.215 390.405 638.414 390.779 640.63 390.786C648.286 391.184 655.964 390.74 663.523 389.461C663.072 388.463 662.551 387.5 661.963 386.576" fill="black"/>
</g>
<path d="M657.972 380.186C660.387 380.588 661.896 380.89 662.433 382.735C662.869 384.261 663.037 386.24 661.578 386.894C661.124 387.071 660.639 387.157 660.152 387.146L635.112 388.387C634.267 388.532 633.399 388.371 632.663 387.934C632.208 387.467 631.953 386.842 631.953 386.19C631.953 385.538 632.208 384.912 632.663 384.446C633.622 383.565 634.816 382.982 636.101 382.768C643.222 380.951 650.556 380.099 657.905 380.236" fill="#CF78DE"/>
<path d="M633.116 388.186C632.743 387.979 632.43 387.679 632.21 387.314C631.943 386.804 631.822 386.23 631.86 385.656C631.898 385.082 632.095 384.529 632.428 384.06C633.635 382.808 635.232 382.003 636.956 381.779C638.885 381.393 641.032 380.991 643.279 380.655C647.121 380.027 651.011 379.746 654.902 379.817C656.395 379.817 657.586 379.951 658.425 380.018L659.381 380.118H659.716L659.397 380.035L658.441 379.884C657.603 379.783 656.395 379.632 654.902 379.582C650.974 379.448 647.041 379.701 643.162 380.336C640.915 380.672 638.768 381.091 636.839 381.494C635.057 381.735 633.415 382.589 632.193 383.909C631.842 384.411 631.641 385.002 631.615 385.614C631.588 386.226 631.736 386.833 632.042 387.364C632.217 387.643 632.459 387.874 632.747 388.035L633.116 388.186Z" fill="#263238"/>
<path d="M600.796 394.19L615.69 390.081L615.505 394.626L599.119 398.417L600.796 394.19Z" fill="white"/>
<path d="M626.826 401.754C626.826 401.67 619.899 402.408 611.363 403.431C602.826 404.455 595.932 405.31 595.932 405.394C595.932 405.478 602.876 404.74 611.396 403.717C619.916 402.693 626.843 401.838 626.826 401.754Z" fill="#263238"/>
<path d="M583.79 493.212L598.884 529.841L605.593 501.681C606.968 496.255 609.684 491.26 613.493 487.157C614.837 485.743 616.296 484.441 617.853 483.266L629.711 537.573C629.711 537.573 619.648 568.501 595.748 569.222C588.804 569.423 578.221 565.012 574.917 557.28C573.24 553.456 551.99 503.006 551.99 503.006L583.79 493.212Z" fill="#E0E0E0"/>
<path d="M590.247 522.495L591.102 517.078L573.307 501.983L570.154 505.522L560.007 517.145L598.348 548.24L607.589 537.137L590.247 522.495Z" fill="#263238"/>
<path d="M734.016 590.354C734.519 582.807 725.361 496.432 725.361 496.432L705.721 467.416L668.27 460.825C667.699 465.387 664.764 477.295 649.317 481.689C641.368 483.953 632.73 476.02 632.73 476.02L617.853 483.249L623.505 523.703L630.801 569.859L734.401 599.311C734.401 599.311 733.512 597.919 734.016 590.354Z" fill="#E0E0E0"/>
<path d="M635.447 574.656L630.801 518.973L684.975 508.004L733.663 580.057L735.089 604.678L660.219 602.346L635.447 574.656Z" fill="#CF78DE"/>
<path d="M621.459 502.302C621.75 503.152 621.958 504.028 622.08 504.918C622.432 506.595 622.868 509.078 623.371 512.113C624.361 518.218 625.468 526.688 626.575 536.047C627.682 545.406 628.671 553.859 629.51 559.98C629.929 562.915 630.265 565.347 630.516 567.209C630.688 568.088 630.783 568.98 630.801 569.876C630.53 569.02 630.323 568.146 630.181 567.259C629.828 565.582 629.392 563.117 628.906 560.064C627.9 553.959 626.793 545.506 625.703 536.147C624.612 526.789 623.589 518.319 622.751 512.214C622.348 509.279 622.013 506.83 621.744 504.968C621.583 504.088 621.487 503.197 621.459 502.302Z" fill="#263238"/>
<path d="M590.297 522.395C590.297 522.395 597.559 523.317 600.109 524.642C602.658 525.967 610.088 530.881 610.088 530.881L625.049 533.716L621.476 558.437L611.413 553.406L589.341 555.603C589.341 555.603 584.528 554.496 584.528 551.058C583.381 550.361 582.403 549.419 581.664 548.3C580.924 547.181 580.442 545.912 580.251 544.584C577.934 541.625 575.784 538.54 573.81 535.342C573.274 533.85 576.276 530.311 576.276 530.311C576.276 530.311 582.582 535.661 586.339 536.5C590.096 537.338 593.635 535.829 593.97 533.363C594.725 528.416 590.297 522.395 590.297 522.395Z" fill="#FFBE9D"/>
<g opacity="0.3">
<path d="M629.979 565.046C629.979 565.046 680.295 583.059 697.067 581.985C711.34 581.08 718.367 574.388 719.508 565.046C720.648 555.704 722.208 515.971 722.208 515.971L695.289 562.714L629.711 560.651L629.979 565.046Z" fill="black"/>
</g>
<path d="M711.558 562.53C715.181 552.198 719.156 532.34 719.156 532.34L725.412 499.249C725.634 490.621 722.741 482.202 717.26 475.534C713.151 470.603 707.399 466.393 699.717 466.427C683.465 466.427 684.035 496.465 684.035 496.465L679.608 539.385L615.975 528.986L611.933 559.578L686.769 575.729C689.917 576.515 693.198 576.606 696.384 575.995C699.57 575.384 702.585 574.085 705.218 572.19C708.261 569.687 710.472 566.318 711.558 562.53Z" fill="#E0E0E0"/>
<path d="M701.512 469.06C701.512 469.194 700.22 469.261 698.241 469.798C695.644 470.465 693.235 471.719 691.2 473.463C689.164 475.208 687.557 477.397 686.501 479.861C685.679 481.756 685.427 483.031 685.293 483.014C685.231 481.863 685.444 480.713 685.914 479.66C686.859 477.02 688.471 474.669 690.592 472.835C692.714 471.001 695.274 469.747 698.023 469.194C699.158 468.871 700.355 468.825 701.512 469.06Z" fill="#263238"/>
<path d="M725.411 499.233C725.411 499.233 725.411 499.518 725.311 500.038C725.21 500.558 725.076 501.363 724.908 502.352L723.315 511.275C722.594 515.149 721.722 519.896 720.715 525.38C719.709 530.864 718.518 537.12 716.925 543.98C716.137 547.418 715.248 551.007 714.275 554.714C713.789 556.576 713.235 558.454 712.598 560.366C712.019 562.339 711.284 564.262 710.401 566.119C709.485 568.064 708.23 569.831 706.694 571.335C705.053 572.823 703.177 574.03 701.143 574.907C696.869 576.727 692.149 577.223 687.591 576.333L628.42 563.603L611.799 560.014L611.396 559.93V559.544C612.788 548.978 614.147 538.747 615.438 528.936V528.516H615.857L679.658 539.049L679.305 539.317C680.731 526.017 681.888 515.3 682.66 507.87C683.062 504.214 683.398 501.363 683.616 499.384C683.733 498.444 683.817 497.706 683.884 497.186C683.951 496.666 684.002 496.432 684.002 496.432C684.002 496.432 684.002 496.7 684.002 497.186C684.002 497.673 683.901 498.461 683.817 499.4C683.633 501.379 683.364 504.231 683.012 507.904C682.291 515.35 681.217 526.068 679.909 539.385V539.703H679.591L615.857 529.439L616.327 529.087C615.052 538.881 613.711 549.112 612.318 559.679L612.1 559.175L628.721 562.748L687.859 575.545C692.256 576.42 696.814 575.953 700.941 574.203C702.904 573.401 704.714 572.266 706.291 570.849C707.779 569.399 708.995 567.695 709.881 565.817C710.744 563.996 711.467 562.112 712.044 560.182C712.631 558.286 713.185 556.408 713.721 554.563C714.745 550.856 715.617 547.284 716.422 543.863C718.099 537.02 719.306 530.797 720.33 525.296C721.353 519.795 722.325 515.099 723.08 511.224C723.835 507.35 724.422 504.415 724.841 502.335C725.042 501.363 725.21 500.658 725.328 500.038C725.445 499.417 725.411 499.233 725.411 499.233Z" fill="#263238"/>
<path d="M687.004 550.253C685.375 548.552 683.951 546.666 682.761 544.634C681.687 542.957 680.765 541.464 680.111 540.458C679.737 539.931 679.218 539.523 678.618 539.284C678.618 539.284 678.819 539.133 679.222 539.2C679.754 539.342 680.229 539.647 680.58 540.072C681.618 541.379 682.586 542.74 683.482 544.148C684.903 546.03 686.086 548.08 687.004 550.253Z" fill="#263238"/>
<path d="M676.119 510.956C676.119 510.956 664.798 482.243 676.605 468.205C677.985 466.598 679.726 465.342 681.685 464.537C683.644 463.733 685.765 463.403 687.876 463.576C691.599 463.861 696.547 464.582 699.717 466.41C699.717 466.41 689.654 464.615 685.478 469.06C682.392 472.414 674.962 482.998 682.794 508.441L676.119 510.956Z" fill="#CF78DE"/>
<path d="M631.002 520.315L619.463 482.478C620.129 481.272 621.159 480.307 622.407 479.723C623.654 479.138 625.054 478.964 626.407 479.224L637.543 520.315H631.002Z" fill="#CF78DE"/>
<path d="M593.383 533.699C593.232 533.883 586.976 529.17 579.395 523.166C574.739 519.658 570.26 515.919 565.978 511.963C566.129 511.778 572.385 516.491 579.966 522.495C584.622 526.004 589.1 529.743 593.383 533.699Z" fill="#455A64"/>
<path d="M563.294 513.388L559.856 510.218L561.5 508.189L565.491 510.872L563.294 513.388Z" fill="#455A64"/>
<path d="M530.958 463.911C530.574 462.415 530.786 460.829 531.549 459.486C532.313 458.144 533.568 457.15 535.05 456.716C541.29 454.871 550.917 452.573 553.499 455.039C557.474 458.678 566.917 467.483 566.917 467.483L580.033 494.704L558.799 500.96L552.761 480.247C552.761 480.247 543.101 480.767 543.956 475.584C543.956 475.584 539.126 473.689 539.814 470.754C540.501 467.819 544.476 467.131 544.476 467.131L543.621 461.949L530.924 464.179L530.958 463.911Z" fill="#FFBE9D"/>
<path d="M541.407 471.106H530.707V458.544H541.407C543.08 458.544 544.684 459.208 545.866 460.391C547.049 461.574 547.713 463.178 547.713 464.85C547.696 466.513 547.024 468.101 545.844 469.272C544.663 470.443 543.07 471.102 541.407 471.106Z" fill="#455A64"/>
<path d="M549.558 464.565L533.491 460.422C533.491 460.422 529.18 459.215 531.428 463.877C533.675 468.54 540.401 467.5 542.984 470.267C545.566 473.035 547.042 477.697 557.76 479.425" fill="#FFBE9D"/>
<path d="M557.76 479.425C557.043 479.424 556.329 479.345 555.629 479.19C553.71 478.838 551.844 478.241 550.078 477.412C548.86 476.817 547.731 476.055 546.724 475.148C545.6 474.083 544.578 472.915 543.671 471.66C541.994 468.758 538.036 468.909 534.547 467.316C533.655 466.911 532.847 466.342 532.166 465.639C531.531 464.927 531.036 464.102 530.706 463.207C530.538 462.759 530.43 462.291 530.388 461.815C530.367 461.539 530.408 461.263 530.506 461.005C530.605 460.747 530.759 460.513 530.958 460.322C531.369 460.07 531.831 459.915 532.311 459.868C532.79 459.822 533.274 459.885 533.725 460.053L542.011 462.284L547.579 463.861C548.27 464.025 548.944 464.255 549.592 464.548C548.881 464.515 548.178 464.396 547.495 464.196L541.843 462.871L533.457 460.825C533.134 460.705 532.789 460.654 532.445 460.677C532.101 460.7 531.765 460.797 531.461 460.959C531.042 461.278 531.159 462.15 531.461 462.905C531.753 463.691 532.185 464.419 532.736 465.052C533.358 465.656 534.078 466.149 534.866 466.511C536.536 467.17 538.245 467.73 539.981 468.188C540.854 468.431 541.685 468.804 542.447 469.295C543.136 469.82 543.742 470.448 544.241 471.156C545.111 472.392 546.087 473.548 547.16 474.611C548.118 475.49 549.183 476.245 550.33 476.859C552.725 477.934 555.211 478.793 557.76 479.425Z" fill="#EB996E"/>
<path d="M556.753 557.683C554.855 557.626 553.003 557.087 551.371 556.116C549.739 555.144 548.382 553.773 547.428 552.131C546.193 549.896 545.489 547.406 545.373 544.855C545.257 542.304 545.73 539.76 546.757 537.422C546.891 537.12 547.026 536.802 547.176 536.516L547.026 536.131C546.055 533.295 545.546 530.322 545.516 527.326C544.912 517.497 544.342 508.356 543.839 499.233C543.336 490.109 542.732 480.918 542.162 471.073H543C543.604 480.918 544.174 490.075 544.677 499.233C545.181 508.39 545.784 517.497 546.355 527.326C546.375 530.174 546.833 533.002 547.713 535.711C548.742 533.803 550.485 532.38 552.56 531.753C553.284 531.594 554.033 531.59 554.758 531.74C555.484 531.89 556.169 532.192 556.77 532.625C557.353 533.022 557.843 533.541 558.205 534.146C558.568 534.752 558.793 535.429 558.866 536.131C558.915 536.882 558.804 537.635 558.54 538.34C558.277 539.045 557.867 539.687 557.338 540.222C556.809 540.758 556.172 541.175 555.47 541.447C554.768 541.719 554.016 541.839 553.265 541.8C552.06 541.597 550.922 541.108 549.947 540.372C548.971 539.636 548.188 538.676 547.663 537.573L547.529 537.875C546.553 540.089 546.1 542.497 546.205 544.914C546.31 547.331 546.969 549.691 548.132 551.812C549.2 553.75 550.891 555.269 552.931 556.125C554.97 556.98 557.24 557.122 559.37 556.525C563.277 555.117 566.33 550.404 566.783 545.037C566.988 539.955 565.829 534.911 563.428 530.428C562.355 528.181 561.114 525.984 559.923 523.854C558.732 521.724 557.441 519.426 556.351 517.145C555.443 515.476 554.921 513.625 554.824 511.728C554.761 510.75 554.985 509.776 555.468 508.924C555.95 508.072 556.671 507.379 557.541 506.931C558.014 506.777 558.518 506.741 559.008 506.826C559.498 506.911 559.96 507.114 560.353 507.419C560.747 507.723 561.06 508.118 561.266 508.571C561.471 509.024 561.563 509.52 561.533 510.017H560.711C560.734 509.661 560.665 509.305 560.513 508.982C560.36 508.66 560.129 508.381 559.839 508.172C559.564 507.949 559.237 507.797 558.889 507.73C558.541 507.663 558.182 507.682 557.843 507.786C557.139 508.185 556.56 508.774 556.175 509.485C555.789 510.197 555.612 511.003 555.663 511.811C555.772 513.574 556.264 515.291 557.105 516.843C558.179 519.141 559.437 521.371 560.661 523.552C561.885 525.732 563.093 527.896 564.183 530.177C566.639 534.815 567.798 540.03 567.538 545.271C567.135 550.068 564.519 555.704 559.588 557.481C558.66 557.704 557.703 557.772 556.753 557.683ZM548.116 536.533C548.561 537.632 549.272 538.603 550.185 539.358C551.099 540.114 552.186 540.63 553.349 540.86C553.973 540.891 554.596 540.785 555.175 540.55C555.754 540.316 556.276 539.958 556.703 539.502C557.155 539.075 557.506 538.552 557.73 537.971C557.953 537.391 558.044 536.768 557.994 536.147C557.94 535.572 557.762 535.015 557.472 534.514C557.183 534.013 556.789 533.581 556.317 533.246C555.817 532.878 555.245 532.62 554.637 532.49C554.03 532.359 553.402 532.36 552.795 532.491C551.791 532.819 550.864 533.346 550.068 534.04C549.273 534.735 548.626 535.583 548.166 536.533H548.116Z" fill="#455A64"/>
<path d="M654.433 711.951L693.209 698.684C693.209 698.684 719.709 733.603 727.122 731.926L704.111 655.782L642.827 673.962L654.433 711.951Z" fill="#455A64"/>
<path d="M682.794 676.143C682.794 675.342 683.091 674.57 683.626 673.975C684.162 673.381 684.9 673.006 685.696 672.923C686.493 672.894 687.271 673.171 687.87 673.698C688.469 674.226 688.844 674.962 688.916 675.757C688.9 676.597 688.577 677.401 688.009 678.019C687.44 678.637 686.665 679.026 685.83 679.111C684.989 679.055 684.203 678.673 683.64 678.047C683.076 677.421 682.779 676.599 682.811 675.757" fill="#E0E0E0"/>
<path d="M705.688 655.245L699.75 656.922L722.342 729.98C722.342 729.98 724.858 732.932 727.122 731.825L705.688 655.245Z" fill="#E0E0E0"/>
<path d="M693.193 700.059C693.562 699.942 693.193 698.03 693.813 695.85C694.434 693.669 695.725 692.21 695.491 691.908C695.256 691.606 693.26 692.814 692.522 695.481C691.784 698.147 692.874 700.21 693.193 700.059Z" fill="#263238"/>
<path d="M698.912 707.02C699.298 707.02 699.449 705.192 700.589 703.447C701.73 701.703 703.323 700.848 703.206 700.479C703.088 700.11 700.891 700.479 699.449 702.709C698.006 704.94 698.56 707.12 698.912 707.02Z" fill="#263238"/>
<path d="M709.831 708.664C709.831 708.295 707.801 708.345 706.057 709.921C704.313 711.498 704.027 713.46 704.38 713.527C704.732 713.594 705.503 712.186 706.963 710.928C708.422 709.67 709.914 709.049 709.831 708.664Z" fill="#263238"/>
<path d="M684.019 702.072C684.32 701.821 683.281 700.261 682.794 698.114C682.308 695.967 682.476 694.139 682.09 694.038C681.704 693.938 680.865 695.917 681.486 698.433C682.107 700.948 683.784 702.34 684.019 702.072Z" fill="#263238"/>
<path d="M649.72 608.535C648.227 608.133 582.548 678.575 581.056 690.231C579.563 701.888 581.945 712.035 589.71 718.576C597.475 725.117 685.83 703.649 685.83 703.649L677.444 666.633L709.31 655.899L680.798 603.655L649.72 608.535Z" fill="#CF78DE"/>
<g opacity="0.3">
<path d="M634.172 624.15L632.076 626.414C632.076 626.414 669.712 665.912 681.268 665.358L699.717 659.102L637.258 620.728L634.172 624.15Z" fill="black"/>
</g>
<path d="M677.695 667.606C677.695 667.841 664.06 672.067 647.103 677.048C630.147 682.03 616.31 685.887 616.243 685.652C616.176 685.418 629.879 681.208 646.852 676.21C663.825 671.212 677.628 667.371 677.695 667.606Z" fill="#263238"/>
<path d="M595.681 671.681L608.444 712.169C608.444 712.169 571.546 738.752 573.223 746.467L652.638 724.53L635.346 660.612L595.681 671.681Z" fill="#455A64"/>
<path d="M632.042 701.955C632.87 701.972 633.662 702.296 634.266 702.862C634.87 703.429 635.243 704.199 635.313 705.024C635.345 705.869 635.046 706.693 634.478 707.32C633.911 707.946 633.121 708.326 632.277 708.378C631.403 708.33 630.578 707.961 629.959 707.342C629.34 706.723 628.971 705.898 628.923 705.024C629.04 703.347 630.835 701.67 632.445 701.988" fill="#E0E0E0"/>
<path d="M653.124 726.19L651.447 719.984L575.202 741.57C575.202 741.57 572.083 744.086 573.173 746.467L653.124 726.19Z" fill="#E0E0E0"/>
<path d="M607.069 712.118C607.203 712.504 609.182 712.118 611.43 712.873C613.677 713.628 615.153 714.936 615.472 714.685C615.79 714.433 614.583 712.353 611.849 711.531C609.115 710.71 606.868 711.8 607.069 712.118Z" fill="#263238"/>
<path d="M599.673 717.871C599.673 718.274 601.534 718.458 603.312 719.733C605.09 721.008 605.945 722.651 606.314 722.517C606.683 722.383 606.314 720.135 604.117 718.592C601.92 717.049 599.572 717.502 599.673 717.871Z" fill="#263238"/>
<path d="M597.694 729.142C598.063 729.142 598.063 727.046 596.486 725.201C594.909 723.356 592.863 723.003 592.779 723.372C592.696 723.741 594.138 724.563 595.413 726.106C596.687 727.649 597.291 729.209 597.694 729.142Z" fill="#263238"/>
<path d="M605.157 702.575C605.409 702.877 607.052 701.854 609.283 701.401C611.514 700.948 613.409 701.166 613.526 700.764C613.644 700.361 611.614 699.456 608.981 700.026C606.348 700.596 604.889 702.324 605.157 702.575Z" fill="#263238"/>
<g opacity="0.3">
<path d="M653.175 711.028L648.278 691.824L651.934 690.131L629.711 629.651L625.468 633.341L642.927 688.738L649.183 711.867L653.175 711.028Z" fill="black"/>
</g>
<path d="M600.746 561.322C596.438 560.397 591.983 560.397 587.675 561.323C583.367 562.248 579.304 564.077 575.756 566.689C572.168 569.215 569.381 572.719 567.728 576.784C566.075 580.849 565.624 585.303 566.431 589.617C570.003 614.774 602.054 700.311 602.054 700.311L646.399 686.978C646.651 686.978 646.902 686.172 646.751 686.391C646.399 686.978 624.26 615.68 624.814 616.519C625.367 617.357 669.561 653.098 687.91 659.572C696.123 662.551 705.078 662.81 713.45 660.309C721.822 657.808 729.167 652.681 734.401 645.685C738.695 639.681 738.997 613.282 734.401 599.328C734.401 599.328 606.432 563.05 604.033 562.161C602.957 561.811 601.859 561.531 600.746 561.322Z" fill="#CF78DE"/>
<path d="M598.935 587.419C606.018 592.201 612 598.439 616.483 605.715C620.966 612.992 623.846 621.14 624.931 629.617" fill="#CF78DE"/>
<path d="M736.213 644.813L735.676 645.668C735.121 646.478 734.522 647.256 733.881 647.999C731.33 650.844 728.388 653.312 725.143 655.329C719.989 658.624 714.211 660.822 708.17 661.786C704.369 662.402 700.497 662.453 696.681 661.937C692.372 661.416 688.185 660.157 684.304 658.214C682.19 657.325 680.194 656.117 678.064 655.027C675.934 653.937 673.855 652.629 671.741 651.287C667.504 648.659 663.154 645.797 658.693 642.7C649.748 636.527 640.445 629.584 630.784 621.869L627.162 618.934L625.35 617.424L624.864 616.971L624.629 616.753C624.78 616.753 624.21 616.552 624.948 616.854C625.535 616.234 625.116 616.552 625.25 616.485V616.602L625.568 617.743C626.508 620.762 627.447 623.831 628.42 626.951C630.387 633.156 632.395 639.513 634.441 646.02C638.6 659.035 642.927 672.621 647.405 686.659L647.54 687.061L647.12 687.195L602.222 700.714L601.819 700.831L601.685 700.445C598.817 692.764 595.849 684.596 592.88 676.294C586.439 658.281 580.318 640.637 574.934 623.412C572.234 614.808 569.718 606.305 567.705 597.835C567.454 596.778 567.169 595.738 566.967 594.665C566.766 593.591 566.582 592.535 566.38 591.478C565.939 589.366 565.731 587.212 565.76 585.055C565.766 580.756 567 576.55 569.315 572.928C571.658 569.557 574.686 566.716 578.2 564.592C581.713 562.468 585.635 561.108 589.71 560.601C593.62 560.038 597.6 560.203 601.45 561.087L604.251 561.809L606.952 562.614L612.302 564.207L651.565 575.947L708.422 592.988L723.869 597.667L727.877 598.891C728.783 599.176 729.236 599.344 729.236 599.344C729.236 599.344 728.766 599.244 727.843 598.975L723.818 597.835L708.321 593.306L651.296 576.534L611.983 564.895L606.633 563.318L603.882 562.53L601.182 561.859C597.446 561.014 593.587 560.855 589.794 561.389C585.831 561.885 582.017 563.211 578.601 565.28C575.186 567.349 572.244 570.116 569.969 573.398C567.746 576.908 566.581 580.984 566.615 585.138C566.588 587.251 566.796 589.361 567.236 591.428C567.42 592.468 567.621 593.524 567.823 594.581C568.024 595.638 568.309 596.677 568.544 597.734C570.556 606.12 573.072 614.64 575.789 623.244C581.173 640.435 587.295 658.079 593.735 676.092C596.704 684.378 599.673 692.562 602.524 700.227L602.004 699.959L646.919 686.541L646.634 687.061C642.173 673.023 637.862 659.438 633.72 646.423C631.673 639.904 629.672 633.537 627.715 627.32C626.759 624.217 625.82 621.131 624.881 618.095L624.562 616.938V616.77C624.696 616.67 624.26 616.904 624.847 616.284C625.635 616.602 625.099 616.384 625.283 616.485L625.485 616.653L625.887 617.005L627.682 618.514L631.288 621.45C640.931 629.148 650.24 636.142 659.112 642.331C663.54 645.45 667.884 648.301 672.11 650.951C674.207 652.276 676.337 653.467 678.383 654.692C680.429 655.916 682.492 656.989 684.572 657.895C688.404 659.829 692.54 661.088 696.799 661.618C700.567 662.149 704.394 662.116 708.153 661.518C714.153 660.596 719.901 658.456 725.043 655.228C728.286 653.254 731.238 650.838 733.814 648.05C734.47 647.324 735.086 646.562 735.659 645.769C735.928 645.081 736.213 644.813 736.213 644.813Z" fill="#263238"/>
<path d="M604.553 596.862C605.866 597.362 607.107 598.033 608.243 598.858C611.084 600.695 613.745 602.795 616.193 605.13C618.648 607.459 620.852 610.039 622.767 612.829C623.635 613.94 624.326 615.179 624.814 616.502C623.894 615.439 623.042 614.318 622.264 613.147C620.233 610.493 617.989 608.008 615.556 605.718C613.132 603.421 610.561 601.286 607.857 599.327C606.7 598.584 605.595 597.76 604.553 596.862Z" fill="#263238"/>
<path d="M619.698 591.914C620.414 592.947 620.979 594.076 621.375 595.269C622.461 598.049 623.33 600.908 623.975 603.822C624.63 606.73 625.051 609.686 625.233 612.661C625.394 613.891 625.394 615.137 625.233 616.368C624.965 616.368 624.679 610.749 623.153 604.007C621.627 597.264 619.447 592.015 619.698 591.914Z" fill="#263238"/>
<path d="M717.764 590.17L733.965 585.507L744.548 587.419L749.58 605.097C754.612 620.728 753.488 629.685 743.123 636.544C740.087 638.557 737.202 639.664 735.106 638.775C727.827 635.689 717.764 590.17 717.764 590.17Z" fill="#455A64"/>
<path d="M733.965 585.507L630.566 568.501L630.801 569.876L733.965 600.736V585.507Z" fill="#455A64"/>
<path d="M88.6156 665.962L78.4518 701.737C78.4518 701.737 110.838 724.194 109.597 730.97L40.5808 713.477L54.1828 657.207L88.6156 665.962Z" fill="#455A64"/>
<path d="M57.8561 693.2C57.1381 693.244 56.4614 693.55 55.9544 694.06C55.4473 694.57 55.1452 695.249 55.1055 695.967C55.113 696.688 55.3946 697.378 55.8931 697.899C56.3915 698.419 57.0695 698.73 57.789 698.768C58.5511 698.719 59.2685 698.391 59.8039 697.847C60.3392 697.302 60.6549 696.579 60.6905 695.816C60.5563 694.374 59.0133 692.881 57.5877 693.233" fill="#E0E0E0"/>
<g opacity="0.6">
<path d="M40.5808 713.477L42.1741 707.859L107.752 726.727C107.752 726.727 110.486 728.874 109.597 730.97L40.5808 713.477Z" fill="white"/>
</g>
<path d="M79.6595 701.569C79.5589 701.904 77.8482 701.569 75.9194 702.324C73.9906 703.079 72.7495 704.202 72.4644 704.001C72.1793 703.8 73.1856 701.938 75.5336 701.15C77.8817 700.361 79.8105 701.284 79.6595 701.569Z" fill="#263238"/>
<path d="M86.1502 706.45C86.1502 706.785 84.473 707.003 83.0474 708.127C81.6218 709.251 80.8335 710.727 80.498 710.626C80.1626 710.525 80.498 708.529 82.3262 707.137C84.1543 705.745 86.2173 706.114 86.1502 706.45Z" fill="#263238"/>
<path d="M88.0957 716.261C87.7602 716.261 87.7267 714.433 89.0516 712.789C90.3766 711.146 92.1377 710.794 92.2048 711.112C92.2719 711.431 91.0475 712.186 89.9909 713.544C88.9342 714.903 88.4311 716.312 88.0957 716.261Z" fill="#263238"/>
<path d="M81.0852 693.183C80.8671 693.451 79.408 692.596 77.496 692.244C75.584 691.892 73.9236 692.126 73.8229 691.791C73.7223 691.456 75.5001 690.583 77.7308 691.036C79.9614 691.489 81.32 692.948 81.0852 693.183Z" fill="#263238"/>
<path d="M64.4307 674.365L62.7535 711.465C62.7535 711.465 99.4504 725.586 99.8194 732.48L28.7568 731.926L28.9078 673.996L64.4307 674.365Z" fill="#455A64"/>
<path d="M40.8493 708.177C40.1591 708.391 39.5713 708.851 39.1973 709.469C38.8232 710.087 38.6889 710.821 38.8198 711.532C38.9954 712.227 39.4298 712.83 40.0344 713.217C40.6391 713.603 41.3684 713.744 42.0736 713.611C42.791 713.387 43.4024 712.909 43.7942 712.267C44.186 711.626 44.3315 710.864 44.2036 710.123C43.9556 709.413 43.4388 708.829 42.7643 708.496C42.0899 708.164 41.3118 708.109 40.5977 708.345" fill="#E0E0E0"/>
<g opacity="0.6">
<path d="M28.7568 731.926L28.9916 726.09L97.1024 728.807C97.1024 728.807 100.255 730.232 99.8865 732.496L28.7568 731.926Z" fill="white"/>
</g>
<path d="M63.9778 711.112C63.9778 711.465 62.3006 711.615 60.506 712.79C58.7114 713.964 57.8728 715.389 57.5542 715.238C57.2355 715.087 57.7722 713.075 59.8687 711.766C61.9652 710.458 64.0617 710.794 63.9778 711.112Z" fill="#263238"/>
<path d="M71.4245 714.299C71.4245 714.634 69.9821 715.221 68.7913 716.714C67.6005 718.207 67.2483 719.767 66.9128 719.733C66.5774 719.699 66.3593 717.737 67.8688 715.926C69.3783 714.114 71.4077 713.963 71.4245 714.299Z" fill="#263238"/>
<path d="M75.584 723.389C75.2653 723.389 74.7957 721.712 75.7014 719.767C76.6071 717.821 78.2507 717.1 78.3849 717.385C78.5191 717.67 77.5295 718.71 76.8083 720.303C76.0871 721.897 75.9362 723.356 75.584 723.389Z" fill="#263238"/>
<path d="M63.4243 702.609C63.2734 702.928 61.7471 702.441 59.7177 702.609C57.6883 702.777 56.2292 703.347 56.0447 703.045C55.8602 702.743 57.3529 701.485 59.6674 701.368C61.9819 701.25 63.6591 702.341 63.4243 702.609Z" fill="#263238"/>
<path d="M20.4211 402.778V432.128L28.2032 546.446C28.2032 546.446 23.4065 601.91 20.3875 633.224C17.8047 660.411 22.0647 707.758 22.0647 707.758H67.3489L83.5506 549.85L93.6137 451.366L111.056 406.551L20.4211 402.778Z" fill="#263238"/>
<path d="M131.636 402.778L136.013 521.942C135.711 544.299 129.556 586.044 121.556 606.892L85.1774 686.81L83.0809 694.005L56.0278 687.38L76.1374 404.874L131.636 402.778Z" fill="#263238"/>
<path d="M100.306 434.342C100.328 434.582 100.328 434.824 100.306 435.063C100.306 435.567 100.306 436.254 100.306 437.143C100.306 439.038 100.306 441.739 100.306 445.194C100.306 452.188 100.306 462.301 100.088 474.796C99.8696 487.291 99.4838 502.168 98.5949 518.671C97.706 535.175 96.5152 553.373 92.6409 572.09C89.2362 590.824 85.4625 608.602 82.1081 624.771C78.7537 640.939 75.7683 655.513 73.5377 667.807C71.307 680.101 69.6801 690.08 68.6906 697.007C68.1706 700.462 67.9023 703.162 67.6507 704.974C67.5333 705.863 67.4327 706.55 67.3656 707.054C67.3462 707.292 67.3012 707.529 67.2314 707.758C67.209 707.518 67.209 707.277 67.2314 707.037C67.2314 706.534 67.332 705.846 67.4159 704.957C67.6172 703.129 67.8352 700.429 68.3048 696.957C69.1266 690.013 70.6193 680.017 72.7662 667.69C74.913 655.363 77.7977 640.855 81.1521 624.603C84.5065 608.351 88.2634 590.656 91.8358 571.922C95.6934 553.255 96.8674 535.024 97.8402 518.621C98.8129 502.218 99.2155 487.274 99.5173 474.779C99.8192 462.284 99.9366 452.188 100.021 445.194C100.021 441.739 100.021 439.038 100.021 437.143C100.021 436.254 100.021 435.567 100.021 435.063C100.099 434.817 100.194 434.576 100.306 434.342Z" fill="#455A64"/>
<path d="M157.313 372.32C157.926 374.551 158.153 376.871 157.984 379.179C157.649 382.685 157.481 391.339 148.122 394.274C138.764 397.209 129.925 390.199 127.074 387.029C124.222 383.859 124.541 373.477 124.541 373.477L139.921 366.634L157.313 372.32Z" fill="#CF78DE"/>
<path d="M50.9961 240.274L43.214 252.786L11.666 266.204L19.5656 395.7L25.2345 419.18L130.277 415.692L132.877 397.511V310.18C130.495 287.773 119.677 273.852 109.631 268.334L103.073 263.839L100.557 255.604L91.299 246.933L61.6295 239.235L50.9961 240.274Z" fill="#CF78DE"/>
<g opacity="0.3">
<path d="M16.0771 385.855C19.462 390.997 24.2505 395.06 29.8749 397.563C35.4993 400.067 41.7236 400.904 47.8096 399.977C58.3591 398.199 67.265 391.238 77.3785 387.767C94.9722 381.695 115.048 386.526 132.39 379.766C132.726 376.781 132.525 373.058 132.726 371.079C124.055 370.626 114.813 370.139 107.149 366.047L100.188 363.481L16.0771 385.855Z" fill="black"/>
</g>
<path d="M11.666 266.221C11.666 266.221 -3.31134 279.034 1.03259 312.444C5.05785 343.472 12.2027 386.71 21.7291 391.725C31.2556 396.74 51.8179 394.224 66.8623 385.704C81.9067 377.184 125.564 354.105 125.564 354.105L107.501 322.004L49.3189 344.579C49.3189 344.579 41.7883 293.089 37.2767 284.2" fill="#CF78DE"/>
<path d="M37.2769 284.234C37.2769 284.234 37.4446 284.552 37.7297 285.206C37.8639 285.542 38.0651 285.944 38.2496 286.447L38.8199 288.208C39.6752 290.858 40.6983 294.917 41.8053 300.066C44.0527 310.482 46.8368 325.643 49.621 344.529L49.2017 344.277L107.35 321.635L107.669 321.501L107.853 321.803C113.555 331.95 119.593 342.734 125.916 353.887L126.134 354.273L125.715 354.558L88.4144 374.684L70.1163 384.53C67.1141 386.207 64.1119 387.884 61.0091 389.159C57.916 390.483 54.7392 391.604 51.4994 392.513C45.1874 394.267 38.6402 395.025 32.0943 394.76C28.8976 394.636 25.7449 393.973 22.7692 392.798L21.679 392.312C21.3136 392.116 20.9607 391.897 20.6224 391.658C20.0081 391.157 19.4462 390.595 18.9452 389.98C17.9926 388.747 17.1666 387.421 16.4797 386.022C13.9939 380.636 12.0445 375.018 10.6598 369.25C9.18391 363.665 8.02664 358.181 6.98679 352.881C4.92384 342.248 3.3976 332.285 2.12294 323.178C0.848271 314.071 -0.275446 305.769 0.0599924 298.439C0.231698 292.155 1.36288 285.933 3.41437 279.99C4.72666 276.243 6.58611 272.711 8.93233 269.508C9.54315 268.68 10.21 267.896 10.9282 267.16C11.1653 266.904 11.4233 266.668 11.6997 266.455L10.9785 267.21C10.5257 267.73 9.85479 268.518 9.06651 269.608C6.81064 272.844 5.01563 276.378 3.73304 280.108C1.76616 286.024 0.708669 292.205 0.596693 298.439C0.311571 305.718 1.46883 313.97 2.77704 323.077C4.08525 332.184 5.66181 342.113 7.80861 352.713C8.86524 358.013 10.0393 363.481 11.5152 369.032C12.8928 374.768 14.8367 380.352 17.3183 385.704C17.9857 387.053 18.7834 388.334 19.6999 389.528C20.1639 390.101 20.6867 390.623 21.2597 391.087C21.5523 391.301 21.8607 391.491 22.1821 391.658L23.222 392.127C26.112 393.265 29.1749 393.9 32.2788 394.006C38.7186 394.159 45.1424 393.299 51.3149 391.456C54.5142 390.581 57.6518 389.494 60.7072 388.203C63.7765 386.878 66.6948 385.217 69.7137 383.607L88.0287 373.745L125.346 353.619L125.178 354.206L107.149 322.205L107.635 322.373L49.4197 344.864L49.0675 345.015V344.612C46.2834 325.744 43.667 310.549 41.5369 300.15C40.4803 294.934 39.5075 290.926 38.7192 288.259C38.518 287.588 38.3503 287.001 38.1825 286.481L37.7129 285.24C37.3943 284.586 37.2769 284.234 37.2769 284.234Z" fill="#263238"/>
<path d="M42.2917 303.253L80.0789 300.771L88.4313 316.486L46.0822 324.1L42.2917 303.253Z" fill="#CF78DE"/>
<path d="M42.2918 303.253C42.4374 303.749 42.555 304.253 42.644 304.762C42.8452 305.819 43.1304 307.211 43.4826 308.955C44.187 312.628 45.1598 317.761 46.4009 324.05L46.0151 323.782L84.1377 316.821L88.3642 316.067L88.0455 316.687C85.1272 311.152 82.3096 305.869 79.6596 300.972L80.0453 301.173L52.9755 302.75L45.1262 303.169H43.013H42.2415C42.4647 303.15 42.6891 303.15 42.9123 303.169L44.925 302.985L52.6736 302.364L79.995 300.368H80.2634L80.3808 300.603L88.7667 316.301L89.0519 316.821L88.4648 316.939L84.2551 317.694L46.0822 324.402H45.7636V324.084C44.6902 317.677 43.8012 312.444 43.1639 308.704C42.8788 307.027 42.6608 305.601 42.493 304.578C42.4008 304.14 42.3336 303.698 42.2918 303.253Z" fill="#263238"/>
<path d="M49.3192 344.579C49.554 344.764 46.1661 348.739 43.3484 354.407C40.5307 360.076 39.3231 365.175 39.0212 365.091C39.0674 363.948 39.2822 362.817 39.6586 361.737C40.3676 359.075 41.3396 356.491 42.5601 354.022C43.7915 351.558 45.2694 349.226 46.9711 347.061C47.6231 346.119 48.4149 345.282 49.3192 344.579Z" fill="#263238"/>
<path d="M87.2739 272.577C86.5275 272.15 85.8253 271.65 85.1774 271.085L79.693 266.724H80.1626C78.0452 270.146 75.5286 273.305 72.6656 276.133L72.3972 276.401L72.0953 276.15L66.309 271.336C60.1034 266.305 54.3003 261.877 50.0738 258.757L45.0422 255.051C44.4048 254.634 43.8094 254.157 43.2644 253.625C43.96 253.946 44.6228 254.333 45.2435 254.782C46.4846 255.571 48.2624 256.745 50.426 258.254C54.7532 261.256 60.6233 265.583 66.8457 270.665C68.8751 272.342 70.8374 274.02 72.632 275.512H72.045C74.8832 272.741 77.4137 269.67 79.5924 266.355L79.7936 266.036L80.062 266.288L85.4625 270.799C86.108 271.348 86.7133 271.942 87.2739 272.577Z" fill="#263238"/>
<path d="M102.805 264.644C103.028 265.32 103.13 266.029 103.107 266.741C103.217 268.61 103.155 270.485 102.922 272.342L102.805 273.332L102.235 272.493C100.84 270.481 99.34 268.543 97.7396 266.69C97.0688 265.902 96.3811 265.164 95.7102 264.46C95.4029 264.114 95.0782 263.783 94.7375 263.47C94.402 263.252 94.4524 263.252 94.1505 263.571L91.3663 267.445C90.5679 268.691 89.6464 269.854 88.6157 270.917C89.2379 269.572 89.9907 268.291 90.8632 267.093L93.5131 263.084C93.594 262.943 93.7055 262.821 93.8395 262.729C93.9735 262.636 94.1266 262.574 94.2875 262.549C94.4484 262.523 94.613 262.534 94.7692 262.58C94.9255 262.626 95.0694 262.707 95.1903 262.816C95.6264 263.185 95.8947 263.487 96.2637 263.856C96.9514 264.56 97.6558 265.315 98.3434 266.12C99.9701 267.996 101.461 269.986 102.805 272.074L102.1 272.242C102.855 267.73 102.62 264.644 102.805 264.644Z" fill="#263238"/>
<path d="M35.5491 279.085C34.6863 278.227 33.9005 277.296 33.2011 276.3C31.4345 274.015 29.3505 271.993 27.0122 270.296C24.6006 268.761 21.8911 267.755 19.0623 267.344C17.8544 267.245 16.655 267.06 15.4731 266.791C16.6887 266.583 17.9307 266.583 19.1462 266.791C22.1448 267.092 25.024 268.122 27.5321 269.793C29.9537 271.529 32.0538 273.675 33.7378 276.133C34.476 277.028 35.0857 278.021 35.5491 279.085Z" fill="#263238"/>
<path d="M117.648 302.331C116.38 299.756 115.379 297.059 114.662 294.28C113.662 291.564 112.937 288.755 112.499 285.894C113.771 288.474 114.777 291.177 115.501 293.961C116.498 296.671 117.217 299.475 117.648 302.331Z" fill="#263238"/>
<path d="M132.508 376.362C132.749 377.463 132.862 378.589 132.843 379.716C132.977 381.762 133.212 384.58 133.346 387.716C133.497 390.406 133.441 393.103 133.179 395.784C133.147 396.937 132.902 398.074 132.458 399.138C132.401 398.019 132.435 396.897 132.558 395.784C132.558 393.737 132.558 390.92 132.558 387.8C132.558 384.681 132.29 381.846 132.323 379.783C132.198 378.64 132.26 377.485 132.508 376.362Z" fill="#263238"/>
<path d="M63.9442 314.306C63.5924 314.676 63.3932 315.165 63.3862 315.676C63.3792 316.186 63.565 316.681 63.9065 317.061C64.2481 317.44 64.7202 317.677 65.2287 317.724C65.7373 317.771 66.2448 317.625 66.6501 317.314C67.0554 317.003 67.3287 316.551 67.4154 316.048C67.502 315.545 67.3957 315.027 67.1177 314.599C66.8397 314.17 66.4104 313.862 65.9154 313.737C65.4204 313.611 64.8962 313.676 64.4474 313.92" fill="#E0E0E0"/>
<g opacity="0.3">
<path d="M39.7759 291.932L50.3757 323.329L85.3116 317.056L51.6336 330.256L48.7992 341.141L39.7759 291.932Z" fill="black"/>
</g>
<g opacity="0.3">
<path d="M44.1702 254.178L75.3995 282.439L80.2298 269.223L85.2613 270.9L79.844 266.405C79.844 266.405 73.9068 275.529 72.3302 275.697L44.1702 254.178Z" fill="black"/>
</g>
<path d="M103.694 321.87C103.411 321.264 103.197 320.628 103.056 319.975C102.671 318.566 102.167 316.805 101.58 314.725C100.339 310.297 98.5447 304.209 96.3476 297.534C94.1504 290.859 91.9366 284.921 90.2929 280.611C89.5382 278.598 88.8841 276.904 88.3641 275.579C88.0874 274.965 87.8738 274.325 87.7268 273.667C88.1061 274.223 88.4212 274.819 88.666 275.445C89.2195 276.603 89.9743 278.313 90.8799 280.477C92.6578 284.72 94.9555 290.674 97.1694 297.349C99.3833 304.025 101.094 310.18 102.201 314.658C102.754 316.889 103.157 318.717 103.409 319.975C103.577 320.593 103.673 321.229 103.694 321.87Z" fill="#263238"/>
<path d="M103.241 287.001C109.144 292.888 124.105 308.251 124.105 308.251L128.113 305.836L107.031 283.328C106.606 282.881 106.039 282.596 105.426 282.523C104.814 282.449 104.195 282.592 103.677 282.925C103.346 283.138 103.068 283.422 102.861 283.757C102.655 284.092 102.526 284.468 102.484 284.859C102.443 285.25 102.489 285.645 102.62 286.016C102.751 286.386 102.963 286.723 103.241 287.001Z" fill="#263238"/>
<path d="M107.501 322.004L112.532 307.848C113.044 306.31 114.014 304.965 115.312 303.994C116.61 303.023 118.174 302.472 119.795 302.414C120.045 302.389 120.298 302.389 120.549 302.414C123.568 302.75 138.998 303.756 138.998 303.756L144.952 310.465C145.435 311.027 145.701 311.744 145.701 312.486C145.701 313.227 145.435 313.944 144.952 314.507L146.63 326.532L143.275 328.83L143.611 337.216C143.611 337.216 140.592 339.229 139.267 338.558L137.925 337.887L135.912 335.874L130.227 343.908L122.361 348.453L107.501 322.004Z" fill="#FFBE9D"/>
<path d="M144.969 315.128C144.295 314.303 143.573 313.519 142.806 312.78C141.947 312.068 140.979 311.502 139.938 311.102C138.573 310.78 137.18 310.59 135.778 310.532C132.084 310.328 128.412 309.84 124.793 309.073C128.492 308.968 132.194 309.164 135.862 309.66C137.332 309.721 138.789 309.952 140.206 310.348C141.337 310.817 142.364 311.507 143.225 312.377C144.082 313.087 144.692 314.05 144.969 315.128Z" fill="#EB996E"/>
<path d="M144.634 326.197C144.293 325.141 143.878 324.109 143.393 323.111C142.031 320.818 139.941 319.046 137.456 318.079C134.93 317.184 132.269 316.735 129.589 316.754C128.471 316.832 127.347 316.798 126.235 316.654C127.315 316.291 128.451 316.121 129.589 316.151C132.372 315.93 135.17 316.314 137.791 317.274C140.452 318.291 142.648 320.248 143.963 322.775C144.569 323.807 144.805 325.013 144.634 326.197Z" fill="#EB996E"/>
<path d="M143.124 336.529C142.555 335.505 142.277 334.345 142.319 333.174C142.254 331.99 141.999 330.823 141.565 329.719C141.266 329.095 140.823 328.552 140.271 328.134C139.72 327.717 139.076 327.438 138.395 327.321C135.757 326.753 133.084 326.366 130.394 326.164C129.236 326.13 128.096 325.868 127.04 325.392C128.161 325.375 129.281 325.431 130.394 325.56C133.148 325.576 135.891 325.885 138.579 326.482C139.394 326.679 140.163 327.032 140.843 327.522C141.468 328.016 141.953 328.663 142.252 329.401C142.684 330.593 142.895 331.855 142.873 333.124C142.94 335.254 143.225 336.478 143.124 336.529Z" fill="#EB996E"/>
<path d="M151.494 309.945L85.1775 378.442L87.7268 381.024L135.242 375.674L199.176 314.759L199.109 311.84L151.494 309.945Z" fill="#455A64"/>
<g opacity="0.3">
<path d="M155.787 352.982C154.502 351.811 152.986 350.921 151.337 350.37C149.688 349.818 147.942 349.617 146.21 349.778C142.736 350.14 139.448 351.53 136.768 353.77C134.507 355.429 132.857 357.787 132.072 360.479C130.965 365.225 134.118 370.19 138.412 372.488L138.999 371.8L155.334 358.684C156.224 358.12 156.893 357.268 157.23 356.269C157.277 355.645 157.17 355.019 156.918 354.446C156.667 353.872 156.278 353.37 155.787 352.982Z" fill="black"/>
</g>
<path d="M148.793 346.575C148.793 346.575 155.217 346.709 157.313 347.749C159.41 348.789 165.179 354.944 165.179 354.944C165.179 354.944 165.179 359.12 163.502 359.288C163.699 360.221 163.812 361.169 163.838 362.122C164.005 364.471 164.341 365.812 161.154 367.808C161.154 367.808 161.49 371.666 160.316 372.655C159.526 373.326 158.691 373.943 157.817 374.5C157.817 374.5 154.144 379.012 151.963 378.676C149.783 378.341 146.646 381.024 146.646 381.024C146.646 381.024 134.906 376.127 136.08 374.735L140.173 370.207C140.173 370.207 132.072 364.303 132.239 362.458C132.407 360.613 133.078 360.462 133.078 360.462C133.078 360.462 132.743 356.94 135.577 356.605C135.577 356.605 137.757 352.261 139.921 352.093C142.084 351.925 156.81 357.275 156.81 357.275L151.292 352.596C151.292 352.596 145.774 351.757 145.942 349.929C146.11 348.101 148.793 346.575 148.793 346.575Z" fill="#FFBE9D"/>
<path d="M147.804 368.613C147.67 368.814 144.449 366.936 140.357 364.99C137.8 363.924 135.303 362.721 132.877 361.385C135.626 361.902 138.275 362.853 140.726 364.202C143.311 365.275 145.702 366.766 147.804 368.613Z" fill="#EB996E"/>
<path d="M155.468 363.481C152.185 362.733 148.975 361.694 145.875 360.378C142.667 359.342 139.558 358.023 136.583 356.437C139.864 357.216 143.073 358.271 146.177 359.59C149.378 360.624 152.486 361.925 155.468 363.481Z" fill="#EB996E"/>
<path d="M198.924 314.641C198.634 314.666 198.343 314.666 198.052 314.641H195.52L186.01 314.524L152.953 313.886L153.255 313.769L136.634 331.077C123.216 344.914 111.056 357.409 102.184 366.55L91.6681 377.217L88.8169 380.068C88.4902 380.414 88.1369 380.734 87.7603 381.024C88.0442 380.637 88.3582 380.272 88.6995 379.934L91.4668 376.949L101.782 366.08L136.047 330.44L152.701 313.249L152.818 313.115H153.003L186.06 314.071L195.553 314.423L198.086 314.54C198.369 314.535 198.651 314.569 198.924 314.641Z" fill="#263238"/>
<path d="M117.665 178.235C115.572 175.862 112.661 174.365 109.513 174.042C107.758 173.572 105.894 173.714 104.23 174.445C103.252 175.107 102.48 176.03 101.999 177.109C101.519 178.188 101.351 179.38 101.513 180.55C101.877 182.869 102.56 185.126 103.543 187.258C104.528 189.413 104.86 191.81 104.499 194.152L110.52 208.492C111.554 208.103 112.491 207.493 113.266 206.704C114.04 205.916 114.633 204.968 115.004 203.927C115.374 202.886 115.513 201.777 115.411 200.676C115.308 199.576 114.967 198.511 114.411 197.556C115.364 197.04 116.192 196.318 116.833 195.444C117.475 194.569 117.915 193.564 118.122 192.499C118.329 191.434 118.297 190.337 118.03 189.286C117.762 188.235 117.265 187.256 116.574 186.42C119.325 184.944 119.543 180.734 117.665 178.235Z" fill="#263238"/>
<path d="M62.1161 215.67L61.4117 186.688L43.0632 185.85C41.9444 186.132 40.9281 186.724 40.1314 187.559C39.3347 188.394 38.7902 189.436 38.5605 190.567C38.3309 191.698 38.4254 192.871 38.8334 193.95C39.2413 195.029 39.946 195.971 40.8661 196.667C39.4511 197.305 38.267 198.364 37.4753 199.699C36.6836 201.034 36.3228 202.58 36.442 204.128C36.5611 205.675 37.1546 207.149 38.1413 208.347C39.1281 209.545 40.4603 210.409 41.9563 210.823C41.1149 211.866 40.5657 213.114 40.365 214.439C40.1643 215.764 40.3193 217.119 40.8141 218.365C41.3089 219.61 42.1258 220.702 43.1811 221.528C44.2364 222.354 45.4923 222.885 46.8201 223.066C46.8201 226.421 48.7321 230.178 52.0194 231.117C55.3067 232.056 59.1643 229.557 60.7073 226.303C62.2503 223.05 62.2 219.276 62.1161 215.67Z" fill="#263238"/>
<path d="M42.5601 182.646C42.5601 182.646 44.3714 206.63 46.7195 213.943C48.6344 219.278 51.1555 224.377 54.2333 229.138L110.184 211.762C112.08 198.814 114.042 185.799 113.237 175.602L95.3916 169.245L42.5601 182.646Z" fill="#263238"/>
<path d="M54.4011 213.943C52.0284 207.529 50.2049 200.925 48.9502 194.202C47.7098 187.453 48.171 180.501 50.292 173.975C50.6274 172.986 53.6463 166.428 54.6527 166.528C55.3906 166.528 53.5793 172.684 53.965 173.321C57.4101 179.546 58.8895 186.668 58.2083 193.749C57.6819 200.577 56.4051 207.327 54.4011 213.876" fill="#263238"/>
<path d="M93.2447 258.841V242.606C93.2447 242.606 109.782 240.694 110.62 224.274C111.04 216.341 110.62 199.938 109.933 185.112C109.614 177.42 106.41 170.13 100.958 164.694C95.5066 159.258 88.2078 156.075 80.5149 155.778H78.9383C61.8142 156.096 52.5225 170.872 53.3276 187.946V243.562L87.1398 267.915L93.2447 258.841Z" fill="#FFBE9D"/>
<path d="M93.2784 242.606C85.6976 242.299 78.3637 239.825 72.1458 235.478C72.1458 235.478 76.8922 247.637 93.3454 246.799L93.2784 242.606Z" fill="#EB996E"/>
<path d="M104.599 199.15C104.582 199.764 104.324 200.346 103.882 200.773C103.44 201.199 102.849 201.435 102.234 201.431C101.936 201.444 101.638 201.398 101.358 201.294C101.077 201.19 100.821 201.031 100.604 200.826C100.386 200.621 100.212 200.374 100.092 200.101C99.9714 199.827 99.9073 199.532 99.9031 199.234C99.9075 198.617 100.154 198.026 100.591 197.59C101.027 197.154 101.617 196.907 102.234 196.902C102.54 196.884 102.846 196.928 103.133 197.033C103.421 197.138 103.684 197.301 103.905 197.512C104.127 197.723 104.303 197.977 104.423 198.259C104.542 198.54 104.602 198.844 104.599 199.15Z" fill="#263238"/>
<path d="M106.193 191.871C105.891 192.156 104.163 190.781 101.631 190.68C99.0981 190.579 97.2028 191.787 96.9513 191.468C96.6997 191.15 97.1357 190.781 97.9743 190.227C99.0917 189.51 100.405 189.158 101.731 189.221C103.044 189.266 104.307 189.731 105.337 190.546C106.092 191.083 106.344 191.653 106.193 191.871Z" fill="#263238"/>
<path d="M81.974 199.552C81.9565 200.163 81.7014 200.744 81.263 201.17C80.8245 201.595 80.2372 201.834 79.6259 201.833C79.3258 201.845 79.0264 201.796 78.7452 201.69C78.4641 201.585 78.2068 201.424 77.9882 201.218C77.7697 201.012 77.5944 200.765 77.4724 200.49C77.3504 200.216 77.2843 199.92 77.2778 199.619C77.2996 199.007 77.5583 198.427 77.9994 198.001C78.4406 197.576 79.0297 197.338 79.6427 197.338C79.942 197.327 80.2405 197.376 80.5207 197.482C80.8009 197.588 81.0572 197.748 81.2744 197.955C81.4916 198.161 81.6653 198.409 81.7855 198.683C81.9056 198.957 81.9697 199.253 81.974 199.552Z" fill="#263238"/>
<path d="M81.4206 191.871C81.1187 192.173 79.3912 190.78 76.8586 190.697C74.3261 190.613 72.4476 191.787 72.1793 191.468C71.9109 191.149 72.3637 190.78 73.2023 190.227C74.3215 189.513 75.6333 189.162 76.9592 189.221C78.2754 189.274 79.5419 189.737 80.582 190.546C81.3199 191.149 81.5715 191.703 81.4206 191.871Z" fill="#263238"/>
<path d="M89.7226 211.595C91.0671 211.223 92.4537 211.026 93.8485 211.008C94.4858 211.008 95.1064 210.873 95.2406 210.437C95.3127 209.772 95.1842 209.1 94.8716 208.509C94.3349 206.921 93.7758 205.244 93.1944 203.477C90.8296 196.382 89.1356 190.563 89.4207 190.462C89.7058 190.361 91.8694 196.047 94.2343 203.142C94.8045 204.819 95.358 206.496 95.9115 208.173C96.2859 208.969 96.3748 209.869 96.163 210.722C96.0567 210.946 95.9023 211.143 95.7109 211.299C95.5196 211.456 95.2959 211.568 95.0561 211.628C94.6928 211.708 94.3209 211.742 93.9491 211.729C92.5401 211.856 91.1208 211.811 89.7226 211.595Z" fill="#263238"/>
<path d="M82.2256 213.054C82.6282 213.054 82.5275 215.788 84.7917 217.817C87.056 219.846 89.991 219.662 90.0078 220.048C90.0246 220.433 89.3369 220.551 88.0958 220.534C86.494 220.511 84.9532 219.917 83.7519 218.857C82.5942 217.835 81.8786 216.404 81.756 214.865C81.7057 213.674 82.1082 213.02 82.2256 213.054Z" fill="#263238"/>
<path d="M82.5779 183.166C82.3095 183.837 79.7937 183.418 76.8251 183.653C73.8565 183.887 71.4246 184.609 71.0556 183.988C70.8879 183.686 71.3239 183.049 72.3135 182.428C73.6301 181.649 75.1134 181.195 76.6406 181.103C78.1629 180.972 79.6941 181.214 81.102 181.808C82.1083 182.277 82.6953 182.847 82.5779 183.166Z" fill="#263238"/>
<path d="M105.472 183.351C105.002 183.904 103.291 183.25 101.195 183.133C99.0982 183.015 97.3204 183.367 96.9346 182.747C96.7669 182.462 97.0688 181.891 97.8739 181.388C98.928 180.757 100.155 180.475 101.379 180.583C102.601 180.655 103.772 181.1 104.734 181.858C105.455 182.478 105.673 183.082 105.472 183.351Z" fill="#263238"/>
<path d="M54.2164 200.106C53.9481 199.972 43.0631 196.315 42.9792 207.569C42.8954 218.823 54.1996 216.576 54.2332 216.257C54.2667 215.938 54.2164 200.106 54.2164 200.106Z" fill="#FFBE9D"/>
<path d="M50.8285 211.997C50.8285 211.997 50.6272 212.131 50.2918 212.282C50.0611 212.38 49.8129 212.431 49.5622 212.431C49.3115 212.431 49.0633 212.38 48.8326 212.282C48.1064 211.821 47.5177 211.172 47.1282 210.405C46.7387 209.638 46.5627 208.78 46.6187 207.921C46.5994 206.957 46.7942 206.001 47.189 205.121C47.2975 204.772 47.4882 204.454 47.745 204.194C48.0019 203.935 48.3173 203.74 48.6649 203.628C48.8921 203.571 49.1319 203.595 49.3431 203.696C49.5544 203.797 49.7238 203.969 49.8222 204.181C49.9731 204.483 49.8222 204.718 49.9563 204.735C50.0905 204.752 50.2079 204.55 50.1073 204.081C50.0524 203.801 49.8973 203.55 49.6712 203.376C49.3651 203.142 48.981 203.034 48.5978 203.074C48.1408 203.158 47.7123 203.356 47.3517 203.649C46.9912 203.942 46.7103 204.321 46.5349 204.752C46.0494 205.724 45.8076 206.801 45.8304 207.888C45.7721 208.89 46.0097 209.887 46.5137 210.754C47.0177 211.622 47.7658 212.323 48.6649 212.769C48.9669 212.853 49.2836 212.871 49.5933 212.822C49.903 212.773 50.1985 212.657 50.4595 212.483C50.7949 212.232 50.862 211.997 50.8285 211.997Z" fill="#EB996E"/>
<path d="M102.654 166.495C104.482 165.489 99.0142 159.602 94.5361 157.572C87.8274 154.52 77.4455 152.641 71.2064 154.419C63.7093 156.566 57.487 160.306 53.7301 167.149C50.109 174.108 48.407 181.906 48.7991 189.741C48.7356 192.136 49.3148 194.505 50.4763 196.6C52.0529 199.083 55.0718 200.642 54.9376 204.081C54.8816 205.308 55.3022 206.51 56.1117 207.435C58.1746 209.632 60.6904 207.569 61.8477 205.506C64.3131 201.095 64.5815 195.829 64.7827 190.781C65.1246 187.204 64.881 183.595 64.0615 180.097C63.5081 178.218 62.6192 176.457 62.1663 174.545C61.8883 173.607 61.8147 172.62 61.9507 171.651C62.0867 170.681 62.429 169.752 62.9546 168.927C63.236 168.594 63.5446 168.286 63.8771 168.004C65.4396 166.666 67.3266 165.761 69.3488 165.381C71.3711 165.002 73.4576 165.16 75.3994 165.841C81.7391 168.071 92.557 171.392 95.3747 169.195C97.3795 167.881 99.0923 166.168 100.406 164.164L102.654 166.495Z" fill="#263238"/>
<path d="M70.8541 142.796C70.0658 142.88 50.8284 146.553 45.5621 160.625C40.2957 174.696 41.5704 179.074 41.5704 179.074C40.8087 179.528 40.1191 180.093 39.5242 180.751C38.7024 181.657 39.7087 186.168 42.2077 185.783C61.1432 178.151 83.2486 178.067 107.819 179.644L126.654 180.047C131.904 180.835 133.816 179.493 131.686 178.101C130.009 177.028 115.249 170.52 115.249 170.52L112.298 168.239L104.884 157.203C104.884 157.203 105.891 155.727 104.029 154.419C102.167 153.111 86.5023 141.153 70.8541 142.796Z" fill="#CF78DE"/>
<path d="M112.298 168.239C112.052 168.254 111.805 168.254 111.56 168.239L109.463 168.122C107.635 167.987 105.002 167.92 101.731 167.887C93.2366 167.879 84.7573 168.608 76.3888 170.067C68.0187 171.583 59.7422 173.576 51.6 176.038C48.4636 176.944 45.9478 177.715 44.2035 178.285L42.1909 178.889L41.4697 179.09L42.1574 178.839L44.1532 178.168C45.8304 177.598 48.4133 176.759 51.5329 175.82C59.6703 173.298 67.9543 171.276 76.3385 169.765C84.7294 168.261 93.2402 167.526 101.765 167.568C108.306 167.736 112.298 168.239 112.298 168.239Z" fill="#263238"/>
<g opacity="0.3">
<path d="M53.1431 150.595C53.1431 150.595 73.8228 147.962 82.8964 152.708L81.8398 152.138L90.4941 156.247C91.1598 156.698 91.9176 156.996 92.7124 157.117C93.5073 157.239 94.3193 157.183 95.0896 156.952C91.2529 153.651 86.8331 151.097 82.0578 149.421C73.4874 146.218 59.8518 144.507 53.1431 150.595Z" fill="black"/>
</g>
<path d="M52.8413 150.696C53.4347 150.264 54.063 149.883 54.7198 149.555C56.4936 148.608 58.3742 147.876 60.3216 147.375C63.2112 146.627 66.1945 146.305 69.1771 146.419C72.8511 146.461 76.4725 147.296 79.7938 148.868C81.485 149.713 83.1208 150.666 84.6912 151.719C86.2006 152.725 87.7101 153.631 89.0686 154.637C90.3004 155.626 91.6069 156.517 92.9765 157.304C94.2099 157.905 95.5628 158.22 96.9347 158.226C101.966 158.478 105.119 157.522 104.918 157.203C104.823 157.373 104.676 157.508 104.499 157.589C103.992 157.802 103.463 157.96 102.922 158.059C100.941 158.411 98.928 158.546 96.9179 158.461C95.5122 158.468 94.1237 158.153 92.8591 157.539C91.4693 156.759 90.1455 155.867 88.9009 154.872C87.5592 153.882 86.0329 152.977 84.5234 151.97C82.9595 150.936 81.3354 149.995 79.6596 149.153C76.3808 147.596 72.8062 146.761 69.1771 146.704C66.2147 146.579 63.2495 146.878 60.3719 147.593C58.4359 148.077 56.5577 148.769 54.7701 149.656C54.1327 149.975 53.6631 150.243 53.3445 150.427L52.8413 150.696Z" fill="#263238"/>
<g opacity="0.3">
<path d="M43.5328 166.495C46.9811 166.402 50.4077 165.918 53.7469 165.052C57.6715 164.331 61.5626 163.794 65.4872 162.889C68.4391 162.201 71.9276 161.597 73.8732 159.534C73.9915 160.262 73.921 161.009 73.6685 161.702C73.416 162.395 72.9898 163.011 72.4308 163.493C70.4727 164.686 68.3305 165.548 66.091 166.042C58.4226 168.132 50.5492 169.381 42.6104 169.765C42.8414 168.626 43.1553 167.505 43.5496 166.411" fill="black"/>
</g>
<path d="M46.2164 159.082C43.8516 160.021 42.3924 160.658 42.2582 162.637C42.1408 164.314 42.4092 166.344 44.036 166.679C44.5357 166.763 45.0458 166.763 45.5455 166.679L71.173 162.402C72.0593 162.352 72.9009 161.997 73.5546 161.396C73.9166 160.828 74.0403 160.139 73.8991 159.48C73.7578 158.821 73.363 158.244 72.7999 157.874C71.6329 157.171 70.2871 156.821 68.9256 156.868C61.2885 156.598 53.6498 157.359 46.2164 159.132" fill="#CF78DE"/>
<path d="M73.1519 161.681C73.486 161.389 73.7352 161.013 73.8731 160.591C74.0362 160.015 74.0346 159.405 73.8686 158.83C73.7026 158.255 73.3788 157.738 72.9339 157.337C71.4512 156.349 69.6788 155.888 67.9023 156.029C65.8561 156.029 63.6087 156.13 61.1935 156.281C57.1657 156.485 53.1639 157.047 49.2352 157.958C47.7425 158.31 46.5349 158.696 45.7131 158.948L44.7571 159.249L44.4216 159.35C44.4216 159.35 44.5223 159.35 44.7403 159.199L45.6795 158.83C46.8276 158.404 47.9977 158.04 49.1849 157.74C53.113 156.744 57.1297 156.137 61.1768 155.929C63.5416 155.778 65.8058 155.727 67.8855 155.711C69.7421 155.568 71.5909 156.071 73.1184 157.136C73.5794 157.568 73.9091 158.122 74.0693 158.733C74.2295 159.344 74.2139 159.988 74.0241 160.591C73.9064 160.914 73.7172 161.207 73.4706 161.447L73.1519 161.681Z" fill="#263238"/>
<path d="M107.233 160.658L91.2322 159.786L92.423 164.348L109.866 164.566L107.233 160.658Z" fill="white"/>
<path d="M82.5276 174.059C82.5276 174.059 89.6892 173.204 98.5448 172.382C107.4 171.56 114.612 170.872 114.612 170.956C114.612 171.04 107.451 171.812 98.5783 172.633C89.706 173.455 82.5276 174.143 82.5276 174.059Z" fill="#263238"/>
<path d="M136.013 400.379H12.79V420.958H136.013V400.379Z" fill="#455A64"/>
<path d="M16.5635 410.325H73.588V468.155C73.588 471.233 72.3652 474.185 70.1886 476.361C68.012 478.538 65.06 479.761 61.9818 479.761H28.1696C26.6455 479.761 25.1363 479.46 23.7282 478.877C22.32 478.294 21.0406 477.439 19.9628 476.361C18.8851 475.284 18.0302 474.004 17.4469 472.596C16.8637 471.188 16.5635 469.679 16.5635 468.155V410.325Z" fill="#455A64"/>
<path d="M73.6214 429.126C73.4564 427.943 73.3779 426.749 73.3866 425.554C73.3412 422.323 72.9191 419.109 72.1287 415.977C71.8529 414.989 71.3471 414.081 70.6528 413.327C69.8355 412.535 68.9359 411.832 67.9692 411.231C65.7859 409.953 63.3449 409.18 60.8244 408.966C55.4574 408.564 49.4363 408.748 43.1636 408.799C36.8909 408.849 30.8362 408.295 25.5866 409.453C23.0985 409.827 20.8012 411.005 19.0456 412.807C17.7756 414.591 17.0529 416.707 16.9659 418.895C16.5801 422.971 16.664 426.308 16.5969 428.606C16.5969 429.68 16.5969 430.552 16.5969 431.256C16.6216 431.563 16.6216 431.872 16.5969 432.179C16.5208 431.877 16.4869 431.567 16.4963 431.256C16.4963 430.552 16.4963 429.68 16.4124 428.606C16.4124 426.308 16.2111 422.988 16.513 418.845C16.5778 416.52 17.3179 414.265 18.6431 412.354C20.49 410.405 22.9326 409.124 25.5866 408.715C28.4114 408.141 31.2926 407.893 34.1738 407.977C37.1257 407.977 40.195 407.977 43.3313 407.977C49.6208 407.977 55.5748 407.759 61.076 408.212C63.7048 408.461 66.244 409.298 68.5059 410.66C69.5144 411.304 70.4481 412.058 71.2901 412.908C72.0858 413.73 72.6625 414.74 72.9673 415.843C73.7253 419.033 74.0635 422.309 73.9736 425.587C73.9736 426.661 73.9736 427.533 73.9736 428.237C73.8832 428.544 73.7653 428.841 73.6214 429.126Z" fill="#263238"/>
<path d="M73.2021 435.214C73.2021 435.466 60.6567 435.65 45.1763 435.65C29.6958 435.65 17.1504 435.466 17.1504 435.214C17.1504 434.963 29.6958 434.778 45.1763 434.778C60.6567 434.778 73.2021 435.063 73.2021 435.214Z" fill="#263238"/>
<path d="M32.8994 480.348C32.6479 480.348 32.4634 470.201 32.4634 457.689C32.4634 445.177 32.6479 435.013 32.8994 435.013C33.151 435.013 33.3355 445.16 33.3355 457.689C33.3355 470.217 33.1343 480.348 32.8994 480.348Z" fill="#263238"/>
<path d="M58.6275 480.197C58.3927 480.197 58.1914 470.134 58.1914 457.756C58.1914 445.378 58.3927 435.298 58.6275 435.298C58.8623 435.298 59.0636 445.361 59.0636 457.756C59.0636 470.15 58.8623 480.197 58.6275 480.197Z" fill="#263238"/>
<path d="M136.013 400.379L143.124 410.325C143.124 410.325 149.481 469.597 146.647 472.381C143.812 475.165 134.286 475.098 134.286 475.098L131.686 404.136L136.013 400.379Z" fill="#455A64"/>
<path d="M113.69 420.136C112.572 413.526 112.482 406.782 113.421 400.144C113.681 403.492 113.759 406.851 113.656 410.207C113.846 413.514 113.857 416.829 113.69 420.136Z" fill="#263238"/>
<path d="M136.147 400.715C136.56 401.79 136.814 402.92 136.902 404.069C137.238 406.149 137.573 409.101 137.758 412.27C137.901 413.804 137.839 415.349 137.573 416.866C137.331 418.171 136.651 419.355 135.644 420.22C134.976 420.804 134.132 421.147 133.246 421.193C132.609 421.193 132.307 421.042 132.307 421.009C133.393 420.93 134.422 420.487 135.225 419.751C136.061 418.942 136.609 417.882 136.785 416.732C136.99 415.27 137.023 413.79 136.885 412.321C136.55 405.897 135.896 400.748 136.147 400.715Z" fill="#263238"/>
<path d="M701.847 410.073L709.696 402.66C718.194 403.936 726.861 401.989 733.997 397.201C741.132 392.414 746.219 385.131 748.259 376.784C750.299 368.437 749.144 359.628 745.022 352.089C740.899 344.55 734.106 338.825 725.978 336.038C717.85 333.251 708.973 333.604 701.092 337.027C693.211 340.451 686.894 346.698 683.383 354.541C679.872 362.383 679.421 371.255 682.117 379.414C684.814 387.573 690.463 394.429 697.956 398.635L701.847 410.073Z" fill="white"/>
<path d="M701.847 410.073L701.595 409.302C701.428 408.799 701.193 408.061 700.891 407.105C700.254 405.159 699.315 402.308 698.107 398.585L697.973 398.719C697.991 398.735 698.015 398.744 698.04 398.744C698.065 398.744 698.089 398.735 698.107 398.719C698.119 398.702 698.126 398.681 698.126 398.66C698.126 398.639 698.119 398.618 698.107 398.601C693.114 395.771 688.91 391.735 685.88 386.861C684.941 385.357 684.122 383.781 683.432 382.148C682.743 380.391 682.182 378.586 681.754 376.748C679.637 368.12 680.962 359.007 685.449 351.34C689.935 343.672 697.23 338.053 705.789 335.672C714.347 333.29 723.497 334.335 731.298 338.584C739.1 342.832 744.941 349.951 747.584 358.433C749.109 363.195 749.55 368.237 748.876 373.192C747.718 382.011 743.178 390.034 736.213 395.566L735.039 396.455C734.672 396.762 734.279 397.037 733.865 397.276L731.466 398.769C729.88 399.589 728.251 400.323 726.586 400.966C721.222 402.913 715.457 403.49 709.814 402.643H709.73C707.214 405.059 705.269 406.903 703.96 408.178L702.451 409.62L701.948 410.124L702.451 409.671L703.944 408.279L709.864 402.794H709.78C715.465 403.699 721.287 403.151 726.703 401.201C728.387 400.575 730.028 399.841 731.617 399.004L734.049 397.528C734.474 397.289 734.879 397.014 735.257 396.706L736.431 395.8C741.942 391.45 746.003 385.529 748.075 378.821C750.148 372.112 750.134 364.932 748.037 358.231C746.388 353.105 743.588 348.424 739.852 344.545C735.919 340.492 731.053 337.463 725.68 335.723C725.019 335.477 724.341 335.281 723.651 335.136L721.621 334.65L719.575 334.348C718.895 334.218 718.205 334.145 717.512 334.13L715.466 334.029C714.779 333.988 714.09 333.988 713.403 334.029C712.732 334.029 712.044 334.029 711.374 334.147L709.378 334.449C704.162 335.286 699.213 337.325 694.92 340.403C689.283 344.407 684.979 350.014 682.568 356.495C680.158 362.976 679.751 370.032 681.402 376.748C681.861 378.606 682.455 380.427 683.18 382.198C683.886 383.841 684.715 385.428 685.662 386.945C688.749 391.837 693.017 395.875 698.073 398.685V398.484C698.045 398.479 698.015 398.484 697.99 398.5C697.965 398.515 697.947 398.54 697.939 398.568L700.874 407.121L701.612 409.285C701.746 409.906 701.847 410.073 701.847 410.073Z" fill="#263238"/>
<path d="M696.967 368.06L702.149 363.414L711.172 372.336L727.542 357.074L731.835 362.223L709.965 381.779L696.967 368.06Z" fill="#263238"/>
</svg>
