<svg width="51" height="36" viewBox="0 0 51 36" fill="none" xmlns="http://www.w3.org/2000/svg">
<g clip-path="url(#clip0_1006_478)">
<path d="M49.8737 5.615C49.5811 4.52971 49.0105 3.54029 48.2186 2.74526C47.4267 1.95022 46.4412 1.37732 45.3602 1.0836C41.4025 0 25.4741 0 25.4741 0C25.4741 0 9.54501 0.0327999 5.58733 1.1164C4.50627 1.41014 3.52072 1.98307 2.72882 2.77814C1.93693 3.57321 1.36632 4.56267 1.07383 5.648C-0.123278 12.7076 -0.587657 23.4648 1.1067 30.242C1.39923 31.3273 1.96985 32.3167 2.76174 33.1117C3.55363 33.9068 4.53916 34.4797 5.6202 34.7734C9.57788 35.857 25.5066 35.857 25.5066 35.857C25.5066 35.857 41.4351 35.857 45.3926 34.7734C46.4737 34.4797 47.4593 33.9068 48.2512 33.1118C49.0431 32.3168 49.6138 31.3273 49.9063 30.242C51.169 23.1724 51.558 12.4218 49.8737 5.615Z" fill="#FF0000"/>
<path d="M20.4043 25.6123L33.6181 17.9287L20.4043 10.2451V25.6123Z" fill="white"/>
</g>
<defs>
<clipPath id="clip0_1006_478">
<rect width="51" height="36" fill="white"/>
</clipPath>
</defs>
</svg>
